<svg width="16" height="18" viewBox="0 0 16 18" fill="none" xmlns="http://www.w3.org/2000/svg">
<path fill-rule="evenodd" clip-rule="evenodd" d="M10.6875 3.9375C10.6875 3.19158 10.3912 2.47621 9.86374 1.94876C9.33629 1.42132 8.62092 1.125 7.875 1.125C7.12908 1.125 6.41371 1.42132 5.88626 1.94876C5.35882 2.47621 5.0625 3.19158 5.0625 3.9375V4.5H10.6875V3.9375ZM11.8125 3.9375V4.5H15.75V15.75C15.75 16.3467 15.5129 16.919 15.091 17.341C14.669 17.7629 14.0967 18 13.5 18H2.25C1.65326 18 1.08097 17.7629 0.65901 17.341C0.237053 16.919 0 16.3467 0 15.75V4.5H3.9375V3.9375C3.9375 2.89321 4.35234 1.89169 5.09077 1.15327C5.82919 0.414843 6.83071 0 7.875 0C8.91929 0 9.92081 0.414843 10.6592 1.15327C11.3977 1.89169 11.8125 2.89321 11.8125 3.9375ZM11.0858 9.96075C11.1914 9.85513 11.2507 9.71187 11.2507 9.5625C11.2507 9.41313 11.1914 9.26987 11.0858 9.16425C10.9801 9.05863 10.8369 8.99929 10.6875 8.99929C10.5381 8.99929 10.3949 9.05863 10.2892 9.16425L7.3125 12.1421L6.02325 10.8517C5.97095 10.7995 5.90886 10.758 5.84053 10.7297C5.7722 10.7014 5.69896 10.6868 5.625 10.6868C5.55104 10.6868 5.4778 10.7014 5.40947 10.7297C5.34114 10.758 5.27905 10.7995 5.22675 10.8517C5.17445 10.904 5.13297 10.9661 5.10466 11.0345C5.07636 11.1028 5.06179 11.176 5.06179 11.25C5.06179 11.324 5.07636 11.3972 5.10466 11.4655C5.13297 11.5339 5.17445 11.596 5.22675 11.6483L6.91425 13.3358C6.9665 13.3881 7.02857 13.4297 7.09691 13.4581C7.16525 13.4864 7.23851 13.501 7.3125 13.501C7.38649 13.501 7.45975 13.4864 7.52809 13.4581C7.59643 13.4297 7.6585 13.3881 7.71075 13.3358L11.0858 9.96075Z" fill="#2F57EF"/>
</svg>
