<svg width="18" height="18" viewBox="0 0 18 18" fill="none" xmlns="http://www.w3.org/2000/svg">
<g clip-path="url(#clip0_6_1093)">
<path d="M16.312 9.49654C16.312 11.8769 16.312 14.2573 16.312 16.6326C16.312 17.1107 16.0282 17.4643 15.585 17.4842C15.4007 17.4892 15.1866 17.4244 15.0272 17.3248C13.1349 16.1546 11.2525 14.9793 9.37513 13.7941C9.21079 13.6896 9.10124 13.6945 8.9369 13.7991C7.07445 14.9743 5.20203 16.1396 3.33459 17.3099C3.12544 17.4443 2.91131 17.539 2.65236 17.4842C2.29381 17.4145 2.03486 17.1256 2.00498 16.7621C2 16.7123 2 16.6625 2 16.6127C2 11.8869 2 7.15602 2 2.43016C2 1.23998 2.77685 0.28385 3.93715 0.0497983C4.11145 0.0149395 4.29072 0.00497983 4.47 0C7.59733 0 10.7197 0 13.847 0C15.2812 0 16.312 1.0358 16.317 2.47C16.317 4.81052 16.312 7.15602 16.312 9.49654ZM14.7185 15.2682C14.7185 15.1586 14.7185 15.0988 14.7185 15.0391C14.7185 10.866 14.7185 6.68791 14.7185 2.51481C14.7185 1.90229 14.4147 1.59853 13.8072 1.59853C10.7047 1.59853 7.60729 1.59853 4.50485 1.59853C3.89732 1.59355 3.59355 1.89732 3.59355 2.50983C3.59355 6.68293 3.59355 10.861 3.59355 15.0341C3.59355 15.0988 3.59355 15.1636 3.59355 15.2582C3.6782 15.2134 3.728 15.1835 3.78278 15.1536C5.40122 14.1427 7.01967 13.1368 8.62815 12.1209C9.00164 11.8869 9.33529 11.8918 9.7038 12.1259C10.9388 12.9077 12.1887 13.6796 13.4287 14.4564C13.842 14.7204 14.2653 14.9843 14.7185 15.2682Z" fill="#747B8C"/>
</g>
<defs>
<clipPath id="clip0_6_1093">
<rect width="18" height="18" fill="white"/>
</clipPath>
</defs>
</svg>
