<svg width="18" height="18" viewBox="0 0 18 18" fill="none" xmlns="http://www.w3.org/2000/svg">
<path d="M2.25 2.25C2.25 1.65326 2.48705 1.08097 2.90901 0.65901C3.33097 0.237053 3.90326 0 4.5 0L13.5 0C14.0967 0 14.669 0.237053 15.091 0.65901C15.5129 1.08097 15.75 1.65326 15.75 2.25V17.4375C15.7499 17.5392 15.7223 17.6391 15.67 17.7263C15.6177 17.8136 15.5427 17.8851 15.453 17.9331C15.3633 17.9811 15.2623 18.0039 15.1606 17.9991C15.059 17.9942 14.9606 17.9619 14.8759 17.9055L9 14.7386L3.12412 17.9055C3.03942 17.9619 2.94101 17.9942 2.83938 17.9991C2.73775 18.0039 2.6367 17.9811 2.547 17.9331C2.4573 17.8851 2.3823 17.8136 2.33 17.7263C2.2777 17.6391 2.25005 17.5392 2.25 17.4375V2.25ZM4.5 1.125C4.20163 1.125 3.91548 1.24353 3.7045 1.4545C3.49353 1.66548 3.375 1.95163 3.375 2.25V16.3867L8.68838 13.5945C8.78069 13.5331 8.88911 13.5003 9 13.5003C9.11089 13.5003 9.21931 13.5331 9.31163 13.5945L14.625 16.3867V2.25C14.625 1.95163 14.5065 1.66548 14.2955 1.4545C14.0845 1.24353 13.7984 1.125 13.5 1.125H4.5Z" fill="#A0A0A0"/>
</svg>
