<svg width="19" height="18" viewBox="0 0 19 18" fill="none" xmlns="http://www.w3.org/2000/svg">
<g clip-path="url(#clip0_7_59)">
<path d="M1.73531 3.28201C2.52447 10.2582 8.46651 16.2003 15.4428 16.9895C16.3526 17.0923 17.1438 16.432 17.3234 15.534L17.6873 13.7145C17.8572 12.865 17.4375 12.007 16.6627 11.6196L15.4761 11.0263C14.6984 10.6374 13.7538 10.8604 13.2321 11.5561C12.8922 12.0091 12.3465 12.2854 11.8241 12.0664C10.029 11.3139 7.41082 8.69577 6.65832 6.90059C6.43938 6.3783 6.71561 5.8325 7.16867 5.49269C7.86437 4.97096 8.0873 4.02638 7.69839 3.24862L7.10514 2.06205C6.71773 1.28722 5.85965 0.867558 5.01019 1.03745L3.19071 1.40135C2.29278 1.58094 1.63238 2.3721 1.73531 3.28201Z" stroke="#6B7385" stroke-width="1.5" stroke-linecap="round" stroke-linejoin="round"/>
</g>
<defs>
<clipPath id="clip0_7_59">
<rect width="18" height="18" fill="white" transform="translate(0.724731)"/>
</clipPath>
</defs>
</svg>
