<svg width="18" height="18" viewBox="0 0 18 18" fill="none" xmlns="http://www.w3.org/2000/svg">
<g clip-path="url(#clip0_6_1064)">
<path d="M17.9997 3.7798C17.8693 4.20955 17.7355 4.63577 17.6122 5.06904C17.038 7.0663 16.4709 9.06004 15.8967 11.0573C15.7911 11.4307 15.629 11.5504 15.238 11.5504C12.1382 11.5504 9.03843 11.5504 5.93862 11.5504C5.51592 11.5504 5.27287 11.7442 5.27287 12.0788C5.27287 12.4099 5.51944 12.6072 5.93862 12.6072C9.03138 12.6072 12.1241 12.6072 15.2204 12.6072C15.6431 12.6072 15.8862 12.8009 15.8862 13.1356C15.8862 13.4702 15.6396 13.664 15.2204 13.664C14.9985 13.664 14.7766 13.664 14.5089 13.664C15.4987 13.9246 15.9848 14.6115 15.858 15.5168C15.7594 16.2424 15.0549 16.8307 14.2975 16.8272C13.4768 16.8201 12.8181 16.2178 12.7335 15.3653C12.6666 14.6643 13.1034 13.8788 14.0897 13.671C11.7367 13.671 9.41886 13.671 7.10105 13.671C7.53079 13.7661 7.89009 13.9775 8.14371 14.3438C8.39381 14.7066 8.47483 15.1117 8.40085 15.5485C8.28109 16.2706 7.55545 16.8589 6.81573 16.8272C5.97385 16.7919 5.3398 16.172 5.27639 15.3195C5.21651 14.5551 5.78363 13.8542 6.60085 13.664C6.34723 13.664 6.09713 13.6675 5.84351 13.664C5.09674 13.6534 4.50144 13.2236 4.29009 12.5438C4.06817 11.8252 4.37815 11.0608 5.04038 10.698C5.07913 10.6769 5.1214 10.6522 5.16719 10.624C4.53314 7.7708 3.89909 4.92109 3.26504 2.06082C2.97267 2.06082 2.68383 2.06082 2.39851 2.06082C1.78207 2.06082 1.16915 2.06434 0.552713 2.06082C0.15467 2.05025 -0.105996 1.68743 0.0419494 1.33518C0.12649 1.12736 0.292047 1.00407 0.517488 1.00407C1.57072 1.00054 2.62747 0.997022 3.6807 1.00407C3.97306 1.00759 4.15271 1.17315 4.22316 1.48313C4.34645 2.01855 4.46269 2.55397 4.58598 3.107C4.66348 3.107 4.73745 3.107 4.81142 3.107C8.9715 3.107 13.1316 3.11053 17.2917 3.10348C17.6192 3.10348 17.8588 3.19154 17.9997 3.49448C17.9997 3.58959 17.9997 3.68469 17.9997 3.7798ZM16.7703 4.17784C12.7758 4.17784 8.80242 4.17784 4.81847 4.17784C5.28696 6.29135 5.75545 8.38724 6.22042 10.4831C9.14762 10.4831 12.0537 10.4831 14.9668 10.4831C15.5692 8.38019 16.168 6.2843 16.7703 4.17784ZM6.86152 15.7669C7.14684 15.7634 7.38637 15.5238 7.38285 15.235C7.37933 14.9497 7.1398 14.7101 6.85095 14.7137C6.56563 14.7172 6.3261 14.9567 6.32962 15.2456C6.33314 15.5309 6.57267 15.7669 6.86152 15.7669ZM14.8329 15.235C14.8294 14.9497 14.5899 14.7101 14.301 14.7137C14.0157 14.7172 13.7762 14.9567 13.7797 15.2456C13.7832 15.5309 14.0228 15.7704 14.3116 15.7669C14.6005 15.7634 14.8365 15.5238 14.8329 15.235Z" fill="#298EC6"/>
</g>
<defs>
<clipPath id="clip0_6_1064">
<rect width="18" height="18" fill="white"/>
</clipPath>
</defs>
</svg>
