<svg width="18" height="18" viewBox="0 0 18 18" fill="none" xmlns="http://www.w3.org/2000/svg">
<path d="M14.5 6.1389C14.5 9.26403 12.0268 11.7778 9 11.7778C5.97316 11.7778 3.5 9.26403 3.5 6.1389C3.5 3.01377 5.97316 0.5 9 0.5C12.0268 0.5 14.5 3.01377 14.5 6.1389Z" stroke="#2F2F2F"/>
<path d="M5.76929 10.5039V16.5461C5.76929 16.7612 5.98893 16.9064 6.18681 16.8222L8.88253 15.6743C8.95762 15.6424 9.04249 15.6424 9.11758 15.6743L11.8133 16.8222C12.0112 16.9064 12.2308 16.7612 12.2308 16.5461V10.8611" stroke="#2F2F2F"/>
<path d="M9 2.48541L9.7554 4.81028L9.78907 4.91393H9.89806H12.3426L10.3649 6.35078L10.2767 6.41484L10.3104 6.51849L11.0658 8.84336L9.08817 7.40651L9 7.34245L8.91183 7.40651L6.93418 8.84336L7.68957 6.51849L7.72325 6.41484L7.63508 6.35078L5.65743 4.91393H8.10194H8.21093L8.2446 4.81028L9 2.48541Z" stroke="black" stroke-width="0.3"/>
</svg>
