<svg width="18" height="18" viewBox="0 0 18 18" fill="none" xmlns="http://www.w3.org/2000/svg">
<path d="M4.90937 17.9437C4.61771 18.0456 4.35142 18.0092 4.1105 17.8346C3.87017 17.6599 3.75 17.4271 3.75 17.136V11.5914C3.19583 10.9801 2.76563 10.2816 2.45938 9.49576C2.15313 8.7099 2 7.87311 2 6.98538C2 5.0353 2.67812 3.38354 4.03437 2.03013C5.39062 0.676709 7.04583 0 9 0C10.9542 0 12.6094 0.676709 13.9656 2.03013C15.3219 3.38354 16 5.0353 16 6.98538C16 7.87311 15.8469 8.7099 15.5406 9.49576C15.2344 10.2816 14.8042 10.9801 14.25 11.5914V17.136C14.25 17.4271 14.1295 17.6599 13.8886 17.8346C13.6483 18.0092 13.3823 18.0456 13.0906 17.9437L9 16.5903L4.90937 17.9437ZM9 12.2244C10.4583 12.2244 11.6979 11.7151 12.7188 10.6964C13.7396 9.67767 14.25 8.44067 14.25 6.98538C14.25 5.5301 13.7396 4.2931 12.7188 3.2744C11.6979 2.2557 10.4583 1.74635 9 1.74635C7.54167 1.74635 6.30208 2.2557 5.28125 3.2744C4.26042 4.2931 3.75 5.5301 3.75 6.98538C3.75 8.44067 4.26042 9.67767 5.28125 10.6964C6.30208 11.7151 7.54167 12.2244 9 12.2244ZM5.5 15.7389L9 14.8439L12.5 15.7389V13.0321C11.9896 13.3232 11.4392 13.5522 10.8489 13.7193C10.258 13.8869 9.64167 13.9708 9 13.9708C8.35833 13.9708 7.74204 13.8869 7.15112 13.7193C6.56079 13.5522 6.01042 13.3232 5.5 13.0321V15.7389Z" fill="black"/>
</svg>
