<svg width="18" height="18" viewBox="0 0 18 18" fill="none" xmlns="http://www.w3.org/2000/svg">
<g clip-path="url(#clip0_19_1573)">
<mask id="mask0_19_1573" style="mask-type:luminance" maskUnits="userSpaceOnUse" x="0" y="0" width="18" height="18">
<path d="M18 0H0V18H18V0Z" fill="white"/>
</mask>
<g mask="url(#mask0_19_1573)">
<path d="M4.99977 0.888672H1V16.8877H16.9991V0.888672H12.7326" stroke="white" stroke-width="0.888837"/>
<path d="M1 4.08879H17.0001" stroke="white" stroke-width="0.888837"/>
<path d="M2 5.86667H8.54777" stroke="white" stroke-width="0.266651"/>
<path d="M2 7.86667H8.54777" stroke="white" stroke-width="0.266651"/>
<path d="M2 14.8667H8.54777" stroke="white" stroke-width="0.266651"/>
<path d="M2.00781 9.02292H4.52618" stroke="white" stroke-width="0.266651"/>
<path d="M5.0293 9.02292H7.54767" stroke="white" stroke-width="0.266651"/>
<path d="M3.51953 10.5337H8.51953" stroke="white" stroke-width="0.266651"/>
<path d="M11 11.8667H13.5184" stroke="white" stroke-width="0.266651"/>
<path d="M2 11.8667H9.99953" stroke="white" stroke-width="0.266651"/>
<path d="M2 13.8667H15" stroke="white" stroke-width="0.266651"/>
<path d="M2 12.8667H10" stroke="white" stroke-width="0.266651"/>
<path d="M8.05273 9.02292H14.0528" stroke="white" stroke-width="0.266651"/>
<path d="M2.00781 10.5337H3.01516" stroke="white" stroke-width="0.266651"/>
<path d="M5.81399 2.26655C6.37033 2.26655 6.82134 1.81554 6.82134 1.2592C6.82134 0.702852 6.37033 0.251846 5.81399 0.251846C5.25765 0.251846 4.80664 0.702852 4.80664 1.2592C4.80664 1.81554 5.25765 2.26655 5.81399 2.26655Z" stroke="white" stroke-width="0.503674"/>
<path d="M7.82962 2.26655C8.38596 2.26655 8.83697 1.81554 8.83697 1.2592C8.83697 0.702852 8.38596 0.251846 7.82962 0.251846C7.27327 0.251846 6.82227 0.702852 6.82227 1.2592C6.82227 1.81554 7.27327 2.26655 7.82962 2.26655Z" stroke="white" stroke-width="0.503674"/>
<path d="M9.84524 2.26655C10.4016 2.26655 10.8526 1.81554 10.8526 1.2592C10.8526 0.702852 10.4016 0.251846 9.84524 0.251846C9.2889 0.251846 8.83789 0.702852 8.83789 1.2592C8.83789 1.81554 9.2889 2.26655 9.84524 2.26655Z" stroke="white" stroke-width="0.503674"/>
<path d="M11.8589 2.26655C12.4153 2.26655 12.8663 1.81554 12.8663 1.2592C12.8663 0.702852 12.4153 0.251846 11.8589 0.251846C11.3026 0.251846 10.8516 0.702852 10.8516 1.2592C10.8516 1.81554 11.3026 2.26655 11.8589 2.26655Z" stroke="white" stroke-width="0.503674"/>
</g>
</g>
<defs>
<clipPath id="clip0_19_1573">
<rect width="18" height="18" fill="white"/>
</clipPath>
</defs>
</svg>
