<svg width="18" height="18" viewBox="0 0 18 18" fill="none" xmlns="http://www.w3.org/2000/svg">
<path d="M3.60025 3.375C4.34553 3.375 4.95019 2.61914 4.95019 1.6875C4.95019 0.755859 4.34553 0 3.60025 0C2.85498 0 2.25032 0.755859 2.25032 1.6875C2.25032 2.61914 2.85498 3.375 3.60025 3.375ZM14.3997 3.375C15.145 3.375 15.7497 2.61914 15.7497 1.6875C15.7497 0.755859 15.145 0 14.3997 0C13.6545 0 13.0498 0.755859 13.0498 1.6875C13.0498 2.61914 13.6545 3.375 14.3997 3.375ZM17.9349 16.4566L16.6975 12.5895L15.5416 14.2207L15.4853 14.8605L16.2643 17.2934C16.405 17.7328 16.7424 18 17.0996 18C17.2121 18 17.3246 17.9754 17.4343 17.9191C17.8955 17.6871 18.1205 17.0332 17.9349 16.4566ZM16.9731 9.08086L16.4528 6.26133C16.3234 5.5582 15.9297 4.96758 15.3981 4.68281C14.8778 4.40156 14.3013 4.44727 13.8204 4.79883C13.182 5.26992 12.7039 6.01172 12.4676 6.88711L12.1499 8.07891L11.6999 8.4375V5.0625C11.6999 4.75312 11.4974 4.5 11.2499 4.5H6.75011C6.50262 4.5 6.30013 4.75312 6.30013 5.0625V8.4375L5.84733 8.07891L5.52954 6.88711C5.29611 6.0082 4.8152 5.26992 4.17679 4.79883C3.69306 4.44727 3.11934 4.40156 2.59905 4.68281C2.06751 4.96758 1.67378 5.5582 1.54441 6.26133L1.02694 9.08086C0.897567 9.78398 1.04662 10.5293 1.43192 11.0742L3.32183 13.7426L3.60588 16.998C3.6565 17.5711 4.04461 18 4.50021 18C4.53396 18 4.5649 17.9965 4.59864 17.993C5.09362 17.9262 5.44798 17.3707 5.39454 16.752L5.11049 13.4895C5.06831 13.0324 4.91644 12.607 4.67177 12.259L3.45401 10.5363L3.94899 8.06484L4.14023 8.78203C4.25553 9.22148 4.4749 9.60469 4.82926 9.92812L6.26638 11.0707C6.39575 11.1727 6.60667 11.2324 6.75011 11.2465H11.2499C11.3933 11.2324 11.6043 11.1727 11.7336 11.0707L13.1707 9.92812C13.5251 9.60469 13.7445 9.225 13.8598 8.78203L14.051 8.06484L14.546 10.5363L13.3282 12.259C13.0836 12.607 12.9317 13.0324 12.8895 13.4895L12.6055 16.752C12.552 17.3707 12.9092 17.9262 13.4014 17.993C13.4351 17.9965 13.466 18 13.4998 18C13.9526 18 14.3435 17.5746 14.3941 16.998L14.6782 13.7426L16.5681 11.0742C16.9506 10.5293 17.1024 9.78398 16.9731 9.08086ZM1.30255 12.5895L0.0651057 16.4566C-0.120511 17.0332 0.104479 17.6871 0.565707 17.9191C1.03819 18.1512 1.55285 17.8594 1.73565 17.2934L2.51468 14.8605L2.45843 14.2207L1.30255 12.5895Z" fill="#24292D" fill-opacity="0.5"/>
</svg>
