<svg width="18" height="18" viewBox="0 0 18 18" fill="none" xmlns="http://www.w3.org/2000/svg">
<g clip-path="url(#clip0_29_12)">
<circle cx="9" cy="9" r="8.5" stroke="#2F2F2F"/>
<path d="M12.206 9C12.206 11.4364 11.7984 13.6188 11.1582 15.1736C10.8376 15.9521 10.4685 16.5493 10.0843 16.944C9.7016 17.3371 9.33539 17.5 9.00007 17.5C8.66475 17.5 8.29854 17.3371 7.91584 16.944C7.5316 16.5493 7.16254 15.9521 6.84196 15.1736C6.20177 13.6188 5.79419 11.4364 5.79419 9C5.79419 6.56359 6.20177 4.38116 6.84196 2.82641C7.16254 2.04786 7.5316 1.45073 7.91584 1.05604C8.29854 0.662933 8.66475 0.5 9.00007 0.5C9.33539 0.5 9.7016 0.662933 10.0843 1.05604C10.4685 1.45073 10.8376 2.04786 11.1582 2.82641C11.7984 4.38116 12.206 6.56359 12.206 9Z" stroke="#2F2F2F"/>
<line x1="1" y1="8.5" x2="17" y2="8.5" stroke="#2F2F2F"/>
</g>
<defs>
<clipPath id="clip0_29_12">
<rect width="18" height="18" fill="white"/>
</clipPath>
</defs>
</svg>
