<svg width="18" height="18" viewBox="0 0 18 18" fill="none" xmlns="http://www.w3.org/2000/svg">
<g clip-path="url(#clip0_269_43)">
<path d="M17.7231 8.68562V8.68128C17.7231 6.11085 16.5814 3.80246 14.7685 2.21503L14.7596 2.20779C14.7373 2.18413 14.7122 2.16301 14.685 2.14482L14.6836 2.14409C13.0734 0.758282 11.0028 -0.00407656 8.86006 1.63955e-05C6.62105 1.63955e-05 4.57699 0.815083 3.01883 2.16002L3.02843 2.15205C3.00965 2.16602 2.99234 2.18178 2.97674 2.1991C2.04002 3.01214 1.29024 4.01172 0.777054 5.13023C0.263871 6.24874 -0.000994625 7.46137 2.80664e-06 8.68779C2.80664e-06 11.2575 1.14019 13.5659 2.95163 15.154L2.9605 15.1613C2.98395 15.1874 3.01019 15.2109 3.03877 15.2315L3.04025 15.2322C4.64998 16.616 6.71903 17.3772 8.86006 17.3734C11.0111 17.3766 13.089 16.6083 14.702 15.2134L14.6924 15.2214C15.6454 14.4092 16.4093 13.4059 16.9324 12.2794C17.4555 11.1528 17.7257 9.9292 17.7246 8.69141V8.68634L17.7231 8.68562ZM14.4281 14.3354C13.9891 13.9873 13.517 13.6814 13.0183 13.4218L12.9703 13.3987C13.423 12.1196 13.6955 10.6451 13.7214 9.11125V9.09967H16.8679C16.7618 11.0841 15.8905 12.9548 14.4303 14.3332L14.4281 14.3354ZM9.28394 13.2459C10.2314 13.2959 11.1168 13.5 11.9335 13.8323L11.8804 13.8134C11.2261 15.2756 10.3052 16.2804 9.28394 16.5011V13.2459ZM9.28394 12.4178V9.09967H12.8788C12.8503 10.4737 12.6072 11.8354 12.158 13.1374L12.1868 13.0425C11.27 12.6732 10.2949 12.4621 9.30462 12.4186L9.28468 12.4178H9.28394ZM9.28394 8.27157V4.95339C10.3009 4.9079 11.3021 4.68967 12.243 4.30843L12.1846 4.32943C12.5945 5.50136 12.8463 6.85208 12.8788 8.25637V8.27157H9.28394ZM9.28394 4.1253V0.871545C10.3052 1.09232 11.2261 2.0927 11.8804 3.55924C11.1168 3.8705 10.2314 4.0739 9.30536 4.12457L9.28394 4.1253ZM11.3915 1.22986C12.2617 1.51436 13.0755 1.94334 13.7974 2.49806L13.7804 2.48503C13.4533 2.73693 13.0863 2.97436 12.6993 3.18066L12.658 3.20093C12.3453 2.47759 11.9154 1.80856 11.3849 1.21972L11.3915 1.22768V1.22986ZM8.43766 0.873716V4.1253C7.52677 4.07975 6.63058 3.88143 5.78806 3.53897L5.84123 3.55779C6.49846 2.09559 7.41785 1.0916 8.43914 0.870821L8.43766 0.873716ZM5.06437 3.19876C4.66407 2.98765 4.28266 2.74381 3.92419 2.46983L3.94191 2.48286C4.64281 1.94442 5.43118 1.52548 6.27397 1.24361L6.33009 1.22696C5.81348 1.79985 5.39253 2.44921 5.08283 3.15098L5.06437 3.19876ZM8.43914 4.95267V8.27085H4.84431C4.8768 6.85136 5.12862 5.50063 5.56726 4.23388L5.53846 4.3287C6.45494 4.69749 7.42951 4.90833 8.4192 4.95195L8.43914 4.95267ZM8.43914 9.09894V12.4171C7.42216 12.4626 6.42095 12.6808 5.48013 13.0621L5.53846 13.0411C5.12862 11.8699 4.8768 10.5184 4.84431 9.11414V9.09894H8.43914ZM8.43914 13.2452V16.499C7.41785 16.2782 6.49699 15.2778 5.84271 13.8113C6.60628 13.5 7.4917 13.2973 8.41773 13.2467L8.43914 13.2452ZM6.33453 16.1407C5.46458 15.857 4.65079 15.429 3.92862 14.8754L3.94634 14.8884C4.27348 14.6365 4.6405 14.3991 5.02745 14.1928L5.0688 14.1725C5.37887 14.8961 5.80878 15.5646 6.34117 16.1508L6.33453 16.1436V16.1407ZM12.6587 14.1718C13.087 14.3998 13.454 14.6365 13.7989 14.9007L13.7812 14.8877C13.0803 15.4261 12.2919 15.845 11.4491 16.1269L11.393 16.1436C11.9096 15.5709 12.3306 14.9218 12.6402 14.2203L12.6587 14.1732V14.1718ZM16.8679 8.27157H13.7214C13.6987 6.77387 13.435 5.28905 12.9401 3.87195L12.9703 3.97184C13.492 3.70261 13.9859 3.38456 14.445 3.02213L14.4273 3.03516C15.8845 4.40835 16.7562 6.27215 16.8665 8.25058L16.8672 8.27085L16.8679 8.27157ZM3.29502 3.03589C3.72037 3.37465 4.19816 3.68519 4.70474 3.9494L4.75274 3.97256C4.30006 5.25162 4.02757 6.72613 4.00173 8.25999V8.27157H0.854403C0.960514 6.28718 1.83187 4.41644 3.29206 3.03806L3.29502 3.03589ZM0.855141 9.09967H4.00173C4.02436 10.5974 4.28804 12.0822 4.78302 13.4993L4.75274 13.3994C4.19816 13.6882 3.72111 13.9988 3.27803 14.3491L3.29576 14.3361C1.83858 12.9629 0.966918 11.0991 0.856618 9.12066L0.85588 9.10039L0.855141 9.09967Z" fill="black"/>
</g>
<defs>
<clipPath id="clip0_269_43">
<rect width="18" height="18" fill="white"/>
</clipPath>
</defs>
</svg>
