<svg width="18" height="18" viewBox="0 0 18 18" fill="none" xmlns="http://www.w3.org/2000/svg">
<g clip-path="url(#clip0_6_1114)">
<path fill-rule="evenodd" clip-rule="evenodd" d="M9.1341 17.9902H2.7269C1.58872 17.9902 1.00981 17.4113 1 16.2829C1 12.1423 1 8.00164 1.00981 3.861C1.00981 3.66476 1.08831 3.43908 1.20605 3.29191C1.97138 2.3009 2.74653 1.30989 3.54129 0.338512C3.68847 0.161897 4.00245 0.0147179 4.23794 0.0147179C7.53475 -0.00490597 10.8218 -0.00490597 14.1186 0.0147179C14.354 0.0147179 14.668 0.161897 14.8054 0.338512C15.5805 1.30989 16.3164 2.3009 17.0523 3.30172C17.1701 3.45871 17.2289 3.68438 17.2289 3.88062C17.2388 7.99182 17.2388 12.0932 17.2388 16.2044C17.2388 17.4407 16.6795 17.9902 15.453 18C13.3434 17.9902 11.2339 17.9902 9.1341 17.9902ZM16.4244 4.09648C11.6157 4.10614 6.86407 4.10629 2.03853 4.1063L2 4.16023V16.9686C2.0103 16.9796 2.02108 16.99 2.03237 17H16H16.1927C16.3709 16.8438 16.4244 16.5677 16.4244 16.0965V4.65576V4.09648ZM15.8167 3.2036H2.68331L4.25731 1H14H14.2427L15.8167 3.2036ZM10.4949 11.2338C11.8784 10.8244 13.0598 9.49789 12.9977 7.71538C12.9977 7.67047 12.9982 7.62556 12.9988 7.58065C13 7.49083 13.0011 7.40102 12.9977 7.3112C12.9873 6.97957 12.7386 6.73085 12.4225 6.72566C12.096 6.72566 11.8421 6.97957 11.8369 7.32156C11.8369 7.38912 11.8375 7.4561 11.8381 7.52288C11.8392 7.65588 11.8404 7.78811 11.8369 7.92265C11.8214 9.0989 10.9301 10.0679 9.73834 10.2078C8.61908 10.3425 7.51019 9.57562 7.25628 8.45636C7.1933 8.18473 7.18714 7.89814 7.18099 7.61251C7.17905 7.52217 7.17711 7.43193 7.17338 7.34229C7.15783 6.98475 6.91429 6.72566 6.58266 6.72566C6.25103 6.72566 6.00748 6.98475 6.0023 7.34747C5.99885 7.482 6 7.61424 6.00115 7.74724C6.00172 7.81402 6.0023 7.881 6.0023 7.94855C6.03339 10.2441 8.28745 11.8867 10.4949 11.2338Z" fill="#747B8C"/>
<rect x="16" y="4" width="1" height="13" fill="#747B8C"/>
<rect x="2" y="4" width="0.3" height="13" fill="#747B8C"/>
<path d="M2 16.5H16V17H2V16.5Z" fill="#747B8C"/>
<path d="M2 3H16V3.5H2V3Z" fill="#747B8C"/>
</g>
<defs>
<clipPath id="clip0_6_1114">
<rect width="18" height="18" fill="white"/>
</clipPath>
</defs>
</svg>
