<svg width="18" height="18" viewBox="0 0 18 18" fill="none" xmlns="http://www.w3.org/2000/svg">
<path d="M9 4.46667C10.5044 4.46218 11.9797 4.83831 13.2563 5.5518C14.5328 6.26529 15.5589 7.28718 16.2164 8.5C14.8664 10.9713 12.1091 12.5333 9 12.5333C5.89091 12.5333 3.13364 10.9713 1.78364 8.5C2.44114 7.28718 3.46715 6.26529 4.74372 5.5518C6.02028 4.83831 7.49558 4.46218 9 4.46667ZM9 3C4.90909 3 1.41545 5.28067 0 8.5C1.41545 11.7193 4.90909 14 9 14C13.0909 14 16.5845 11.7193 18 8.5C16.5845 5.28067 13.0909 3 9 3ZM9 6.66667C9.54249 6.66667 10.0628 6.85982 10.4464 7.20364C10.83 7.54745 11.0455 8.01377 11.0455 8.5C11.0455 8.98623 10.83 9.45255 10.4464 9.79636C10.0628 10.1402 9.54249 10.3333 9 10.3333C8.45751 10.3333 7.93724 10.1402 7.55365 9.79636C7.17005 9.45255 6.95455 8.98623 6.95455 8.5C6.95455 8.01377 7.17005 7.54745 7.55365 7.20364C7.93724 6.85982 8.45751 6.66667 9 6.66667ZM9 5.2C6.97091 5.2 5.31818 6.68133 5.31818 8.5C5.31818 10.3187 6.97091 11.8 9 11.8C11.0291 11.8 12.6818 10.3187 12.6818 8.5C12.6818 6.68133 11.0291 5.2 9 5.2Z" fill="#3057EF"/>
</svg>
