<svg width="18" height="18" viewBox="0 0 18 18" fill="none" xmlns="http://www.w3.org/2000/svg">
<g clip-path="url(#clip0_14_12)">
<path d="M18 9.00001C18 4.02944 13.9706 5.81452e-06 9 5.81452e-06C4.02943 5.81452e-06 0 4.02944 0 9.00001C0 13.4922 3.29117 17.2155 7.59375 17.8907V11.6016H5.30859V9.00001H7.59375V7.01719C7.59375 4.76157 8.93739 3.51563 10.9932 3.51563C11.9779 3.51563 13.0078 3.69141 13.0078 3.69141V5.90626H11.8729C10.7549 5.90626 10.4062 6.60001 10.4062 7.31175V9.00001H12.9023L12.5033 11.6016H10.4062V17.8907C14.7088 17.2155 18 13.4922 18 9.00001Z" fill="#1877F2"/>
<path d="M12.5033 11.6016L12.9023 9H10.4063V7.31174C10.4063 6.60001 10.7549 5.90625 11.8729 5.90625H13.0078V3.69141C13.0078 3.69141 11.9779 3.51563 10.9932 3.51563C8.93739 3.51563 7.59375 4.76156 7.59375 7.01719V9H5.30859V11.6016H7.59375V17.8907C8.05196 17.9626 8.52159 18 9 18C9.47841 18 9.94804 17.9626 10.4063 17.8907V11.6016H12.5033Z" fill="white"/>
</g>
<defs>
<clipPath id="clip0_14_12">
<rect width="18" height="18" fill="white"/>
</clipPath>
</defs>
</svg>
