<svg width="19" height="19" viewBox="0 0 19 19" fill="none" xmlns="http://www.w3.org/2000/svg">
<g clip-path="url(#clip0_16_29)">
<path d="M18.1262 13.758H6.31366V13.1955C6.31366 12.8861 6.06053 12.633 5.75116 12.633H4.62616C4.31678 12.633 4.06366 12.8861 4.06366 13.1955V13.758H1.25116C0.941785 13.758 0.68866 14.0111 0.68866 14.3205V15.4455C0.68866 15.7548 0.941785 16.008 1.25116 16.008H4.06366V16.5705C4.06366 16.8798 4.31678 17.133 4.62616 17.133H5.75116C6.06053 17.133 6.31366 16.8798 6.31366 16.5705V16.008H18.1262C18.4355 16.008 18.6887 15.7548 18.6887 15.4455V14.3205C18.6887 14.0111 18.4355 13.758 18.1262 13.758ZM18.1262 8.13297H15.3137V7.57047C15.3137 7.26109 15.0605 7.00797 14.7512 7.00797H13.6262C13.3168 7.00797 13.0637 7.26109 13.0637 7.57047V8.13297H1.25116C0.941785 8.13297 0.68866 8.38609 0.68866 8.69547V9.82047C0.68866 10.1298 0.941785 10.383 1.25116 10.383H13.0637V10.9455C13.0637 11.2548 13.3168 11.508 13.6262 11.508H14.7512C15.0605 11.508 15.3137 11.2548 15.3137 10.9455V10.383H18.1262C18.4355 10.383 18.6887 10.1298 18.6887 9.82047V8.69547C18.6887 8.38609 18.4355 8.13297 18.1262 8.13297ZM18.1262 2.50797H10.8137V1.94547C10.8137 1.63609 10.5605 1.38297 10.2512 1.38297H9.12616C8.81678 1.38297 8.56366 1.63609 8.56366 1.94547V2.50797H1.25116C0.941785 2.50797 0.68866 2.76109 0.68866 3.07047V4.19547C0.68866 4.50484 0.941785 4.75797 1.25116 4.75797H8.56366V5.32047C8.56366 5.62984 8.81678 5.88297 9.12616 5.88297H10.2512C10.5605 5.88297 10.8137 5.62984 10.8137 5.32047V4.75797H18.1262C18.4355 4.75797 18.6887 4.50484 18.6887 4.19547V3.07047C18.6887 2.76109 18.4355 2.50797 18.1262 2.50797Z" fill="white"/>
</g>
<defs>
<clipPath id="clip0_16_29">
<rect width="18" height="18" fill="white" transform="translate(0.68866 0.257965)"/>
</clipPath>
</defs>
</svg>
