<svg width="18" height="18" viewBox="0 0 18 18" fill="none" xmlns="http://www.w3.org/2000/svg">
<path fill-rule="evenodd" clip-rule="evenodd" d="M2 3.5C2 3.22386 2.22386 3 2.5 3H8.1053C8.2295 3 8.34925 3.04622 8.44123 3.12966L10.3502 4.8613C10.6262 5.11162 10.9854 5.25028 11.358 5.25028H14.4826C14.7587 5.25028 14.9826 5.47414 14.9826 5.75028V5.93168V6.67852H4.6492C4.24611 6.67852 3.88244 6.92053 3.72677 7.29234L2 11.417V3.5ZM1.02022 14.2015H1V3.5C1 2.67157 1.67157 2 2.5 2H8.1053C8.47788 2 8.83713 2.13866 9.11309 2.38898L11.0221 4.12062C11.1141 4.20406 11.2338 4.25028 11.358 4.25028H14.4826C15.311 4.25028 15.9826 4.92185 15.9826 5.75028V5.93168V6.67852H16.0128C16.6431 6.67852 17.1163 7.25456 16.9938 7.87285L15.7346 14.229C15.6416 14.6982 15.2295 15.0359 14.7512 15.0347L1.99881 15.0035C1.49761 15.0022 1.11052 14.6432 1.02022 14.2015ZM4.6492 7.67852H16.0128L14.7536 14.0347L2.00126 14.0035L4.6492 7.67852Z" fill="white"/>
</svg>
