<svg width="18" height="18" viewBox="0 0 18 18" fill="none" xmlns="http://www.w3.org/2000/svg">
<path d="M8.56135 14.7L4.41135 17.2C4.22802 17.3167 4.03635 17.3667 3.83635 17.35C3.63635 17.3333 3.46135 17.2667 3.31135 17.15C3.16135 17.0333 3.04468 16.8877 2.96135 16.713C2.87802 16.5377 2.86135 16.3417 2.91135 16.125L4.01135 11.4L0.33635 8.225C0.169683 8.075 0.065683 7.904 0.0243497 7.712C-0.0176503 7.52067 -0.00531702 7.33333 0.0613497 7.15C0.128016 6.96667 0.228016 6.81667 0.36135 6.7C0.494683 6.58333 0.678016 6.50833 0.91135 6.475L5.76135 6.05L7.63635 1.6C7.71968 1.4 7.84902 1.25 8.02435 1.15C8.19902 1.05 8.37802 1 8.56135 1C8.74468 1 8.92402 1.05 9.09935 1.15C9.27402 1.25 9.40302 1.4 9.48635 1.6L11.3614 6.05L16.2113 6.475C16.4447 6.50833 16.628 6.58333 16.7614 6.7C16.8947 6.81667 16.9947 6.96667 17.0613 7.15C17.128 7.33333 17.1407 7.52067 17.0993 7.712C17.0573 7.904 16.953 8.075 16.7864 8.225L13.1113 11.4L14.2113 16.125C14.2613 16.3417 14.2447 16.5377 14.1614 16.713C14.078 16.8877 13.9613 17.0333 13.8113 17.15C13.6613 17.2667 13.4864 17.3333 13.2864 17.35C13.0864 17.3667 12.8947 17.3167 12.7113 17.2L8.56135 14.7Z" fill="#FF8F3C"/>
</svg>
