<svg width="18" height="18" viewBox="0 0 18 18" fill="none" xmlns="http://www.w3.org/2000/svg">
<g clip-path="url(#clip0_8_1410)">
<path d="M17.9928 8.14811C17.9928 9.78169 17.999 11.409 17.9928 13.0426C17.9865 14.1254 17.2104 15.0454 16.1527 15.2144C15.7145 15.2833 15.2639 15.2833 14.8258 15.3208C13.1672 15.471 11.5899 15.8904 10.1566 16.7666C9.41808 17.2173 8.62946 17.2423 7.89091 16.7854C6.23856 15.7777 4.42974 15.3646 2.52077 15.2707C1.97625 15.2457 1.44424 15.1894 0.981083 14.8639C0.361451 14.4258 0.00469417 13.8249 0.00469417 13.0614C-0.00156472 9.78169 -0.00156472 6.49577 0.00469417 3.20984C0.0109531 1.99562 1.00612 0.975416 2.21409 1.00045C4.45477 1.04426 6.62035 1.42606 8.56687 2.64654C8.85478 2.82805 9.14269 2.82805 9.42434 2.64654C10.9578 1.67641 12.6602 1.23829 14.444 1.07556C14.9885 1.02549 15.5393 0.969157 16.0775 1.03175C17.1854 1.15692 17.9865 2.10202 17.9928 3.22236C18.0053 4.86845 17.999 6.50828 17.9928 8.14811ZM8.24767 15.2457C8.24767 15.1456 8.24767 15.0579 8.24767 14.9703C8.24767 11.9911 8.24767 9.00558 8.24767 6.02635C8.24767 5.45679 8.24767 4.88723 8.24141 4.31767C8.24141 4.25508 8.21011 4.15494 8.1663 4.1299C7.82832 3.93588 7.49034 3.74185 7.1461 3.5666C5.64396 2.80301 4.02291 2.56518 2.3643 2.49633C1.81977 2.47129 1.50057 2.78424 1.50057 3.32876C1.50057 6.5208 1.50057 9.71284 1.50057 12.9049C1.50057 12.9988 1.50683 13.0926 1.52561 13.1803C1.62575 13.5558 1.90114 13.7498 2.37682 13.7561C3.86018 13.7811 5.29346 14.044 6.67668 14.5697C7.20243 14.7763 7.7094 15.0141 8.24767 15.2457ZM9.7498 15.2582C9.80613 15.2394 9.83743 15.2332 9.86246 15.2207C11.6963 14.2693 13.6428 13.7874 15.7083 13.7561C16.2152 13.7498 16.4969 13.4369 16.4969 12.9362C16.4969 11.3026 16.4969 9.67529 16.4969 8.04171C16.4969 6.46447 16.4969 4.88723 16.4969 3.30999C16.4969 2.80927 16.1839 2.47755 15.702 2.49633C14.3564 2.5464 13.0232 2.69035 11.7589 3.18481C11.1455 3.42265 10.576 3.77314 9.97512 4.05479C9.79987 4.13616 9.74354 4.22378 9.74354 4.41155C9.7498 7.94157 9.7498 11.4653 9.7498 14.9954C9.7498 15.0705 9.7498 15.1456 9.7498 15.2582Z" fill="#747B8C"/>
</g>
<defs>
<clipPath id="clip0_8_1410">
<rect width="18" height="18" fill="white"/>
</clipPath>
</defs>
</svg>
