<svg width="18" height="18" viewBox="0 0 18 18" fill="none" xmlns="http://www.w3.org/2000/svg">
<g clip-path="url(#clip0_19_61181)">
<rect width="18" height="18" rx="1" fill="#6B7385"/>
<path d="M6.10945 13.2189C3.8806 13.2189 2 11.408 2 9.10945C2 6.81095 3.81095 5 6.10945 5C7.15423 5 8.12935 5.41791 8.89552 6.04478L7.71144 7.22886C7.22388 6.8806 6.66667 6.67164 6.10945 6.67164C4.71642 6.67164 3.67164 7.78607 3.67164 9.10945C3.67164 10.4328 4.78607 11.5473 6.10945 11.5473C7.22388 11.5473 8.0597 10.8507 8.33831 9.94527H6.10945V8.41294H9.9403C10.2886 10.0149 9.52239 13.2189 6.10945 13.2189ZM14.5373 9.80597V11.2687H13.0746V9.80597H11.6119V8.41294H13.0746V6.95025H14.5373V8.41294H16V9.80597H14.5373Z" fill="white"/>
</g>
<defs>
<clipPath id="clip0_19_61181">
<rect width="18" height="18" fill="white"/>
</clipPath>
</defs>
</svg>
