<svg width="18" height="18" viewBox="0 0 18 18" fill="none" xmlns="http://www.w3.org/2000/svg">
<path d="M16.207 6.4775L11.367 6.0575L9.47696 1.6075C9.13696 0.7975 7.97696 0.7975 7.63696 1.6075L5.74696 6.0675L0.916957 6.4775C0.0369575 6.5475 -0.323043 7.6475 0.346957 8.2275L4.01696 11.4075L2.91696 16.1275C2.71696 16.9875 3.64696 17.6675 4.40696 17.2075L8.55696 14.7075L12.707 17.2175C13.467 17.6775 14.397 16.9975 14.197 16.1375L13.097 11.4075L16.767 8.2275C17.437 7.6475 17.087 6.5475 16.207 6.4775ZM8.55696 12.8375V3.5375L10.267 7.5775L14.647 7.9575L11.327 10.8375L12.327 15.1175L8.55696 12.8375Z" fill="#FF8F3C"/>
</svg>
