<svg width="18" height="18" viewBox="0 0 18 18" fill="none" xmlns="http://www.w3.org/2000/svg">
<mask id="path-1-inside-1_410_64" fill="white">
<path fill-rule="evenodd" clip-rule="evenodd" d="M9 17.1C13.4734 17.1 17.1 13.4734 17.1 9C17.1 4.52655 13.4734 0.9 9 0.9C4.52655 0.9 0.9 4.52655 0.9 9C0.9 13.4734 4.52655 17.1 9 17.1ZM9 18C13.9707 18 18 13.9707 18 9C18 4.0293 13.9707 0 9 0C4.0293 0 0 4.0293 0 9C0 13.9707 4.0293 18 9 18Z"/>
</mask>
<path d="M9 19.1C14.578 19.1 19.1 14.578 19.1 9H15.1C15.1 12.3689 12.3689 15.1 9 15.1V19.1ZM19.1 9C19.1 3.42198 14.578 -1.1 9 -1.1V2.9C12.3689 2.9 15.1 5.63112 15.1 9H19.1ZM9 -1.1C3.42198 -1.1 -1.1 3.42198 -1.1 9H2.9C2.9 5.63112 5.63112 2.9 9 2.9V-1.1ZM-1.1 9C-1.1 14.578 3.42198 19.1 9 19.1V15.1C5.63112 15.1 2.9 12.3689 2.9 9H-1.1ZM9 20C15.0753 20 20 15.0753 20 9H16C16 12.8661 12.8661 16 9 16V20ZM20 9C20 2.92473 15.0753 -2 9 -2V2C12.8661 2 16 5.13387 16 9H20ZM9 -2C2.92473 -2 -2 2.92473 -2 9H2C2 5.13387 5.13387 2 9 2V-2ZM-2 9C-2 15.0753 2.92473 20 9 20V16C5.13387 16 2 12.8661 2 9H-2Z" fill="#2F57EF" mask="url(#path-1-inside-1_410_64)"/>
<path d="M13.6528 5.27934C13.6528 8.44157 10.1392 8.22684 10.1392 10.4131V10.4249C10.1392 10.6771 9.93479 10.8815 9.68258 10.8815H7.76551C7.5133 10.8815 7.30887 10.6771 7.30887 10.4249V10.2959C7.30887 6.91899 10.393 7.13373 10.393 5.55261C10.393 4.86942 9.8855 4.4595 9.04615 4.4595C8.36331 4.4595 7.66553 4.75808 7.0312 5.36832C6.86864 5.5247 6.61446 5.53457 6.43682 5.3956L5.17604 4.40947C4.96356 4.24329 4.93892 3.92836 5.12675 3.73471C6.17933 2.64962 7.54712 2 9.35848 2C12.2279 2.00004 13.6528 3.54209 13.6528 5.27934ZM10.5296 14.4341C10.5296 15.4101 9.74882 16.2104 8.75333 16.2104C7.77732 16.2104 6.97703 15.4101 6.97703 14.4341C6.97703 13.4582 7.77732 12.6579 8.75333 12.6579C9.74885 12.6579 10.5296 13.4582 10.5296 14.4341Z" fill="#2F57EF"/>
</svg>
