<svg width="19" height="19" viewBox="0 0 19 19" fill="none" xmlns="http://www.w3.org/2000/svg">
<g clip-path="url(#clip0_7_57)">
<path fill-rule="evenodd" clip-rule="evenodd" d="M2.27912 2.46374C3.41052 1.33234 5.09547 0.908249 7.23775 0.908249H12.2106C14.3528 0.908249 16.0378 1.33234 17.1692 2.46374C18.3006 3.59514 18.7247 5.28009 18.7247 7.42237V12.3952C18.7247 14.5375 18.3006 16.2224 17.1692 17.3538C16.0378 18.4852 14.3528 18.9093 12.2106 18.9093H7.23775C5.09547 18.9093 3.41052 18.4852 2.27912 17.3538C1.14773 16.2224 0.723633 14.5375 0.723633 12.3952V7.42237C0.723633 5.28009 1.14773 3.59514 2.27912 2.46374ZM3.28675 3.47137C2.55334 4.20477 2.14863 5.42063 2.14863 7.42237V12.3952C2.14863 14.3969 2.55334 15.6128 3.28675 16.3462C4.02016 17.0796 5.23602 17.4843 7.23775 17.4843H12.2106C14.2123 17.4843 15.4282 17.0796 16.1616 16.3462C16.895 15.6128 17.2997 14.3969 17.2997 12.3952V7.42237C17.2997 5.42063 16.895 4.20477 16.1616 3.47137C15.4282 2.73796 14.2123 2.33325 12.2106 2.33325H7.23775C5.23602 2.33325 4.02016 2.73796 3.28675 3.47137ZM6.1109 9.90877C6.1109 7.9132 7.72863 6.29547 9.7242 6.29547C11.7198 6.29547 13.3375 7.9132 13.3375 9.90877C13.3375 11.9044 11.7198 13.5221 9.7242 13.5221C7.72863 13.5221 6.1109 11.9044 6.1109 9.90877ZM9.7242 7.72047C8.51563 7.72047 7.5359 8.7002 7.5359 9.90877C7.5359 11.1173 8.51563 12.0971 9.7242 12.0971C10.9328 12.0971 11.9125 11.1173 11.9125 9.90877C11.9125 8.7002 10.9328 7.72047 9.7242 7.72047ZM14.3952 5.01475C13.981 5.01475 13.6452 5.35054 13.6452 5.76475C13.6452 6.17896 13.981 6.51475 14.3952 6.51475H14.4049C14.8191 6.51475 15.1549 6.17896 15.1549 5.76475C15.1549 5.35054 14.8191 5.01475 14.4049 5.01475H14.3952Z" fill="#6B7385"/>
</g>
<defs>
<clipPath id="clip0_7_57">
<rect width="18.001" height="18.001" fill="white" transform="translate(0.723633 0.908249)"/>
</clipPath>
</defs>
</svg>
