<svg width="18" height="18" viewBox="0 0 18 18" fill="none" xmlns="http://www.w3.org/2000/svg">
<g clip-path="url(#clip0_6_17)">
<path fill-rule="evenodd" clip-rule="evenodd" d="M6.75 1.125H13.5V9C13.5 9.09952 13.4736 9.19727 13.4235 9.28327C13.3734 9.36926 13.3014 9.44043 13.2148 9.4895C13.1283 9.53857 13.0302 9.56378 12.9307 9.56258C12.8312 9.56137 12.7337 9.53378 12.6484 9.48263L10.125 7.96838L7.60163 9.48375C7.51617 9.53496 7.41866 9.56255 7.31904 9.56371C7.21943 9.56487 7.1213 9.53955 7.03467 9.49035C6.94805 9.44114 6.87605 9.36982 6.82604 9.28366C6.77602 9.19751 6.74978 9.09962 6.75 9V1.125Z" fill="#2F57EF"/>
<path d="M4.25 0H15.5C16.0967 0 16.669 0.237053 17.091 0.65901C17.5129 1.08097 17.75 1.65326 17.75 2.25V15.75C17.75 16.3467 17.5129 16.919 17.091 17.341C16.669 17.7629 16.0967 18 15.5 18H4.25C3.65326 18 3.08097 17.7629 2.65901 17.341C2.23705 16.919 2 16.3467 2 15.75V14.625H3.125V15.75C3.125 16.0484 3.24353 16.3345 3.4545 16.5455C3.66548 16.7565 3.95163 16.875 4.25 16.875H15.5C15.7984 16.875 16.0845 16.7565 16.2955 16.5455C16.5065 16.3345 16.625 16.0484 16.625 15.75V2.25C16.625 1.95163 16.5065 1.66548 16.2955 1.4545C16.0845 1.24353 15.7984 1.125 15.5 1.125H4.25C3.95163 1.125 3.66548 1.24353 3.4545 1.4545C3.24353 1.66548 3.125 1.95163 3.125 2.25V3.375H2V2.25C2 1.65326 2.23705 1.08097 2.65901 0.65901C3.08097 0.237053 3.65326 0 4.25 0Z" fill="#2F57EF"/>
<path d="M1.125 5.625V5.0625C1.125 4.91332 1.18426 4.77024 1.28975 4.66475C1.39524 4.55926 1.53832 4.5 1.6875 4.5C1.83668 4.5 1.97976 4.55926 2.08525 4.66475C2.19074 4.77024 2.25 4.91332 2.25 5.0625V5.625H2.8125C2.96168 5.625 3.10476 5.68426 3.21025 5.78975C3.31574 5.89524 3.375 6.03832 3.375 6.1875C3.375 6.33668 3.31574 6.47976 3.21025 6.58525C3.10476 6.69074 2.96168 6.75 2.8125 6.75H0.5625C0.413316 6.75 0.270242 6.69074 0.164752 6.58525C0.0592632 6.47976 0 6.33668 0 6.1875C0 6.03832 0.0592632 5.89524 0.164752 5.78975C0.270242 5.68426 0.413316 5.625 0.5625 5.625H1.125ZM1.125 9V8.4375C1.125 8.28832 1.18426 8.14524 1.28975 8.03975C1.39524 7.93426 1.53832 7.875 1.6875 7.875C1.83668 7.875 1.97976 7.93426 2.08525 8.03975C2.19074 8.14524 2.25 8.28832 2.25 8.4375V9H2.8125C2.96168 9 3.10476 9.05926 3.21025 9.16475C3.31574 9.27024 3.375 9.41332 3.375 9.5625C3.375 9.71168 3.31574 9.85476 3.21025 9.96025C3.10476 10.0657 2.96168 10.125 2.8125 10.125H0.5625C0.413316 10.125 0.270242 10.0657 0.164752 9.96025C0.0592632 9.85476 0 9.71168 0 9.5625C0 9.41332 0.0592632 9.27024 0.164752 9.16475C0.270242 9.05926 0.413316 9 0.5625 9H1.125ZM1.125 12.375V11.8125C1.125 11.6633 1.18426 11.5202 1.28975 11.4148C1.39524 11.3093 1.53832 11.25 1.6875 11.25C1.83668 11.25 1.97976 11.3093 2.08525 11.4148C2.19074 11.5202 2.25 11.6633 2.25 11.8125V12.375H2.8125C2.96168 12.375 3.10476 12.4343 3.21025 12.5398C3.31574 12.6452 3.375 12.7883 3.375 12.9375C3.375 13.0867 3.31574 13.2298 3.21025 13.3352C3.10476 13.4407 2.96168 13.5 2.8125 13.5H0.5625C0.413316 13.5 0.270242 13.4407 0.164752 13.3352C0.0592632 13.2298 0 13.0867 0 12.9375C0 12.7883 0.0592632 12.6452 0.164752 12.5398C0.270242 12.4343 0.413316 12.375 0.5625 12.375H1.125Z" fill="#2F57EF"/>
</g>
<defs>
<clipPath id="clip0_6_17">
<rect width="18" height="18" fill="white"/>
</clipPath>
</defs>
</svg>
