<svg width="18" height="18" viewBox="0 0 18 18" fill="none" xmlns="http://www.w3.org/2000/svg">
<g clip-path="url(#clip0_34_34)">
<path d="M7.6087 17H15.9565H17V8H7.6087V13L5 15L7.6087 17Z" stroke="#2F2F2F"/>
<path d="M8 10L1 10L1 1H2.04348L10.3913 1L13 3L10.3913 5V7.5" stroke="#2F2F2F"/>
<path d="M11.32 15H10.1665L11.924 9.90909H13.3111L15.0661 15H13.9126L12.6374 11.0724H12.5977L11.32 15ZM11.2479 12.9989H13.9723V13.8391H11.2479V12.9989Z" fill="black"/>
<path d="M4.25 5.5L6.75 8M3.83333 8L6.33333 5.5L7.16667 4.25M3 4.25H8M5.08333 3H5.5" stroke="black" stroke-linecap="round" stroke-linejoin="round"/>
</g>
<defs>
<clipPath id="clip0_34_34">
<rect width="18" height="18" fill="white"/>
</clipPath>
</defs>
</svg>
