<svg width="18" height="18" viewBox="0 0 18 18" fill="none" xmlns="http://www.w3.org/2000/svg">
<path d="M2.77778 17C2.28889 17 1.87022 16.8337 1.52178 16.5011C1.17393 16.1679 1 15.7675 1 15.3V3.4C1 2.9325 1.17393 2.53243 1.52178 2.1998C1.87022 1.8666 2.28889 1.7 2.77778 1.7H3.66667V0.82875C3.66667 0.587917 3.7517 0.389583 3.92178 0.23375C4.09244 0.0779167 4.3037 0 4.55556 0C4.80741 0 5.01867 0.0813166 5.18933 0.24395C5.35941 0.40715 5.44444 0.609167 5.44444 0.85V1.7H12.5556V0.82875C12.5556 0.587917 12.6409 0.389583 12.8116 0.23375C12.9816 0.0779167 13.1926 0 13.4444 0C13.6963 0 13.9073 0.0813166 14.0773 0.24395C14.248 0.40715 14.3333 0.609167 14.3333 0.85V1.7H15.2222C15.7111 1.7 16.1298 1.8666 16.4782 2.1998C16.8261 2.53243 17 2.9325 17 3.4V15.3C17 15.7675 16.8261 16.1679 16.4782 16.5011C16.1298 16.8337 15.7111 17 15.2222 17H2.77778ZM2.77778 15.3H15.2222V6.8H2.77778V15.3ZM2.77778 5.1H15.2222V3.4H2.77778V5.1Z" fill="black"/>
</svg>
