<svg width="18" height="18" viewBox="0 0 18 18" fill="none" xmlns="http://www.w3.org/2000/svg">
<path d="M9.75 15.75H6.75V6.75H9.75V8.25C10.0658 7.8482 10.4666 7.52128 10.9237 7.29267C11.3808 7.06406 11.8828 6.93945 12.3937 6.92775C13.2873 6.93271 14.1424 7.29182 14.7716 7.92632C15.4007 8.56083 15.7526 9.41895 15.75 10.3125V15.75H12.75V10.6875C12.692 10.2822 12.4895 9.91145 12.1798 9.64356C11.8702 9.37566 11.4742 9.22862 11.0648 9.2295C10.8815 9.23529 10.7013 9.27805 10.535 9.3552C10.3686 9.43235 10.2196 9.5423 10.0968 9.67847C9.97404 9.81463 9.88003 9.97419 9.82043 10.1476C9.76083 10.321 9.73688 10.5046 9.75 10.6875V15.75ZM5.25 15.75H2.25V6.75H5.25V15.75ZM3.75 5.25C3.35218 5.25 2.97064 5.09196 2.68934 4.81066C2.40804 4.52936 2.25 4.14782 2.25 3.75C2.25 3.35218 2.40804 2.97064 2.68934 2.68934C2.97064 2.40804 3.35218 2.25 3.75 2.25C4.14782 2.25 4.52936 2.40804 4.81066 2.68934C5.09196 2.97064 5.25 3.35218 5.25 3.75C5.25 4.14782 5.09196 4.52936 4.81066 4.81066C4.52936 5.09196 4.14782 5.25 3.75 5.25Z" fill="#2F2F2F"/>
</svg>
