<svg width="18" height="18" viewBox="0 0 18 18" fill="none" xmlns="http://www.w3.org/2000/svg">
<path fill-rule="evenodd" clip-rule="evenodd" d="M9.22222 17L9.87659 16.2908C10.6191 15.4728 11.287 14.6968 11.8812 13.9586L12.3717 13.3362C14.4199 10.6818 15.4444 8.57506 15.4444 7.01795C15.4444 3.69426 12.659 1 9.22222 1C5.78548 1 3 3.69426 3 7.01795C3 8.57506 4.02459 10.6818 6.07274 13.3362L6.56326 13.9586C7.41097 15.0034 8.29788 16.0172 9.22222 17Z" stroke="white" stroke-linecap="round" stroke-linejoin="round"/>
<path d="M9.2215 9.47874C10.6534 9.47874 11.8141 8.36225 11.8141 6.98498C11.8141 5.60771 10.6534 4.49121 9.2215 4.49121C7.78965 4.49121 6.62891 5.60771 6.62891 6.98498C6.62891 8.36225 7.78965 9.47874 9.2215 9.47874Z" stroke="white" stroke-linecap="round" stroke-linejoin="round"/>
</svg>
