<svg width="18" height="18" viewBox="0 0 18 18" fill="none" xmlns="http://www.w3.org/2000/svg">
<path d="M15.8085 6.11321H12.5745V3.56604C12.5745 2.62027 12.1979 1.71323 11.5275 1.04447C10.8572 0.375707 9.94801 0 9 0C8.05199 0 7.14281 0.375707 6.47247 1.04447C5.80213 1.71323 5.42553 2.62027 5.42553 3.56604V6.11321H2.19149C1.87549 6.11321 1.57243 6.23844 1.34898 6.46136C1.12553 6.68428 1 6.98663 1 7.30189V16.8113C1 17.1266 1.12553 17.4289 1.34898 17.6518C1.57243 17.8748 1.87549 18 2.19149 18H15.8085C16.1245 18 16.4276 17.8748 16.651 17.6518C16.8745 17.4289 17 17.1266 17 16.8113V7.30189C17 6.98663 16.8745 6.68428 16.651 6.46136C16.4276 6.23844 16.1245 6.11321 15.8085 6.11321ZM6.44681 3.56604C6.44681 2.89049 6.7158 2.2426 7.19462 1.76492C7.67344 1.28723 8.32285 1.01887 9 1.01887C9.67715 1.01887 10.3266 1.28723 10.8054 1.76492C11.2842 2.2426 11.5532 2.89049 11.5532 3.56604V6.11321H6.44681V3.56604ZM15.9787 16.8113C15.9787 16.8564 15.9608 16.8996 15.9289 16.9314C15.8969 16.9632 15.8537 16.9811 15.8085 16.9811H2.19149C2.14635 16.9811 2.10305 16.9632 2.07113 16.9314C2.03921 16.8996 2.02128 16.8564 2.02128 16.8113V7.30189C2.02128 7.25685 2.03921 7.21366 2.07113 7.18181C2.10305 7.14997 2.14635 7.13208 2.19149 7.13208H15.8085C15.8537 7.13208 15.8969 7.14997 15.9289 7.18181C15.9608 7.21366 15.9787 7.25685 15.9787 7.30189V16.8113Z" fill="#2F2F2F"/>
</svg>
