<svg width="18" height="18" viewBox="0 0 18 18" fill="none" xmlns="http://www.w3.org/2000/svg">
<g clip-path="url(#clip0_8_1424)">
<path d="M18.0003 9.14135C17.8726 9.32688 17.767 9.53449 17.6084 9.69352C16.1906 11.1115 14.7552 12.5162 13.3374 13.9385C12.8883 14.3891 12.4216 14.2787 12.175 14.0225C11.9196 13.7618 11.8315 13.2936 12.2851 12.8563C13.289 11.8845 14.2709 10.895 15.266 9.91438C15.31 9.87021 15.3805 9.85696 15.4377 9.82604C15.4157 9.79953 15.3981 9.77303 15.3761 9.74653C15.31 9.74653 15.2396 9.74653 15.1735 9.74653C12.3907 9.74653 9.60796 9.74653 6.82518 9.74653C6.37166 9.74653 6.08105 9.53449 5.99739 9.14577C5.90492 8.71729 6.22635 8.29323 6.65786 8.26231C6.74152 8.2579 6.82078 8.2579 6.90444 8.2579C9.65639 8.2579 12.4128 8.2579 15.1647 8.2579C15.2352 8.2579 15.3012 8.2579 15.4201 8.2579C15.3496 8.1828 15.3056 8.13421 15.2572 8.08562C14.2577 7.09615 13.2582 6.10225 12.2542 5.11278C12.0341 4.89633 11.9064 4.6578 11.9812 4.33975C12.1001 3.80526 12.7254 3.57998 13.1569 3.91127C13.2185 3.95545 13.2714 4.00845 13.3286 4.06588C14.7816 5.5015 16.2303 6.93712 17.6789 8.38158C17.8066 8.50968 17.8947 8.67754 18.0003 8.82773C18.0003 8.92932 18.0003 9.03534 18.0003 9.14135Z" fill="#747B8C"/>
<path d="M1.49706 9.00442C1.49706 11.2086 1.49706 13.4129 1.49706 15.6171C1.49706 15.8247 1.51468 16.0279 1.65117 16.2002C1.8317 16.4387 2.08268 16.5006 2.36448 16.5006C4.5044 16.5006 6.63992 16.5006 8.77984 16.5006C8.8635 16.5006 8.94276 16.5006 9.02642 16.505C9.4271 16.5359 9.71771 16.854 9.71331 17.2559C9.70891 17.6535 9.40949 17.9715 9.00881 17.9936C8.83709 18.0025 8.66977 17.998 8.49804 17.998C6.42857 17.998 4.3635 18.0025 2.29403 17.998C1.18004 17.998 0.29501 17.3001 0.0572407 16.2311C0.0176125 16.0544 0.00440313 15.8689 0.00440313 15.6878C0 11.2307 0 6.7781 0 2.32104C0 0.982604 0.973092 0.00638054 2.30284 0.00196324C4.5044 -0.00245405 6.71037 0.00196324 8.91194 0.00196324C9.25098 0.00196324 9.50636 0.134482 9.64726 0.443693C9.77055 0.721983 9.73532 0.995855 9.53278 1.23439C9.40509 1.38458 9.24658 1.47292 9.04844 1.48618C8.96037 1.49059 8.87231 1.49501 8.78425 1.49501C6.65753 1.49501 4.53082 1.49501 2.40411 1.49501C2.29843 1.49501 2.19276 1.49943 2.09149 1.5171C1.78327 1.5701 1.5455 1.83072 1.51027 2.13994C1.49706 2.24153 1.49706 2.3343 1.49706 2.42706C1.49706 4.62246 1.49706 6.81344 1.49706 9.00442Z" fill="#747B8C"/>
</g>
<defs>
<clipPath id="clip0_8_1424">
<rect width="18.0003" height="18" fill="white"/>
</clipPath>
</defs>
</svg>
