<svg width="18" height="18" viewBox="0 0 18 18" fill="none" xmlns="http://www.w3.org/2000/svg">
<g clip-path="url(#clip0_6_1087)">
<path fill-rule="evenodd" clip-rule="evenodd" d="M12 17.9978C12.8908 17.9989 13.7806 18 14.6693 18C14.8643 18 15.0594 17.985 15.2444 17.94C16.2048 17.7049 16.8099 16.9047 16.8099 15.8593C16.8124 14.3764 16.8124 12.8922 16.8124 11.4073C16.8124 9.92248 16.8124 8.43701 16.8149 6.95155C16.8149 6.25133 16.5499 5.69616 16.0147 5.25602C15.0469 4.46324 14.0803 3.66922 13.1137 2.8752C12.1472 2.08122 11.1806 1.28725 10.2129 0.494531C9.40763 -0.165675 8.39731 -0.165675 7.59206 0.499533C6.62425 1.29729 5.65769 2.09629 4.69114 2.89529C3.72459 3.69429 2.75804 4.49328 1.79025 5.29103C1.26508 5.72617 1 6.27634 1 6.96655C1.005 9.93248 1.005 12.8934 1.005 15.8593C1.005 15.9894 1.005 16.1194 1.02501 16.2495C1.19506 17.2898 2.02032 17.995 3.08565 17.995H6V18H7.2H10.8H12V17.9978ZM12 16.7996H14.6593C15.2945 16.7996 15.6196 16.4745 15.6196 15.8493C15.6196 15.1127 15.6193 14.376 15.6189 13.6394C15.618 11.4304 15.6171 9.22207 15.6246 7.01657C15.6246 6.66146 15.4945 6.40138 15.2244 6.17631C13.3288 4.61082 11.4433 3.05033 9.55267 1.48484C9.12254 1.12973 8.70241 1.12973 8.26727 1.48484C7.6354 2.00668 7.00408 2.52852 6.37276 3.05035C5.11015 4.09401 3.84755 5.13766 2.58049 6.18131C2.32041 6.39637 2.19537 6.65145 2.20037 6.99156C2.20538 9.94248 2.20538 12.8934 2.20538 15.8443C2.20538 16.4745 2.53048 16.7946 3.16568 16.7946C4.11045 16.7971 5.05523 16.7983 6 16.799V8.2C6 8.08954 6.08954 8 6.2 8H11.8C11.9105 8 12 8.08954 12 8.2V16.7996ZM10.8 16.7996V9.2H7.2V16.7995C7.77082 16.7996 8.34165 16.7996 8.91247 16.7996H10.8Z" fill="#747B8C"/>
</g>
<defs>
<clipPath id="clip0_6_1087">
<rect width="18" height="18" fill="white"/>
</clipPath>
</defs>
</svg>
