<svg width="18" height="18" viewBox="0 0 18 18" fill="none" xmlns="http://www.w3.org/2000/svg">
<path d="M11.2498 13.5V14.0625C11.2498 14.6592 11.0128 15.2315 10.5908 15.6535C10.1688 16.0754 9.59654 16.3125 8.99981 16.3125C8.40307 16.3125 7.83077 16.0754 7.40882 15.6535C6.98686 15.2315 6.74981 14.6592 6.74981 14.0625V13.5M15.0354 12.355C14.1326 11.25 13.4952 10.6875 13.4952 7.64121C13.4952 4.85156 12.0707 3.8577 10.8982 3.375C10.7425 3.31102 10.5959 3.16406 10.5484 3.0041C10.3428 2.30414 9.76621 1.6875 8.99981 1.6875C8.2334 1.6875 7.65649 2.30449 7.45293 3.0048C7.40547 3.16652 7.25887 3.31102 7.10313 3.375C5.92926 3.8584 4.50614 4.84875 4.50614 7.64121C4.50438 10.6875 3.867 11.25 2.96418 12.355C2.59012 12.8127 2.91778 13.5 3.57203 13.5H14.4311C15.0818 13.5 15.4074 12.8106 15.0354 12.355Z" stroke="#2F57EF" stroke-width="1.2" stroke-linecap="round" stroke-linejoin="round"/>
</svg>
