<svg width="18" height="18" viewBox="0 0 18 18" fill="none" xmlns="http://www.w3.org/2000/svg">
<g clip-path="url(#clip0_8_1395)">
<path d="M9.56397 17.998C9.18836 17.998 8.81275 17.998 8.43714 17.998C8.21647 17.9698 7.9958 17.9463 7.77982 17.9182C6.11305 17.6787 4.62 17.0402 3.31945 15.9697C1.60573 14.5565 0.539939 12.7582 0.140854 10.5703C0.0798171 10.2369 0.0469512 9.89889 0 9.56554C0 9.18993 0 8.81432 0 8.43871C0.00939025 8.38237 0.0234756 8.32603 0.0328659 8.26968C0.0892073 7.89407 0.117378 7.51377 0.197195 7.14285C0.713659 4.78121 1.97665 2.90785 3.97207 1.55096C5.93464 0.212853 8.11787 -0.24727 10.4607 0.123645C12.151 0.391267 13.644 1.10023 14.9211 2.23645C16.8837 3.98304 17.9213 6.18505 17.9964 8.81432C18.0434 10.514 17.6302 12.115 16.7475 13.5705C15.3249 15.9133 13.2543 17.3501 10.5546 17.8618C10.2213 17.9229 9.89262 17.9557 9.56397 17.998ZM16.7992 9.01151C16.8085 4.72017 13.3013 1.20822 9.00055 1.20352C4.7139 1.19883 1.21604 4.6873 1.19726 8.98334C1.17848 13.27 4.68104 16.7866 8.98647 16.8007C13.2778 16.8148 16.7898 13.3076 16.7992 9.01151Z" fill="#747B8C"/>
<path d="M8.39923 6.59822C8.39923 5.80005 8.39923 5.00657 8.39923 4.2084C8.39923 3.88914 8.6199 3.64968 8.92977 3.61212C9.22087 3.57456 9.50258 3.76706 9.57301 4.06285C9.59179 4.14267 9.59179 4.22718 9.59179 4.307C9.59179 5.72023 9.59648 7.12877 9.58709 8.542C9.58709 8.67347 9.62935 8.75328 9.73264 8.8331C10.6059 9.52328 11.4698 10.2229 12.3431 10.9177C12.545 11.0821 12.6295 11.2886 12.5779 11.5375C12.5356 11.7535 12.3948 11.9037 12.1835 11.9741C11.9534 12.0493 11.7515 11.9835 11.5637 11.8333C11.0238 11.3966 10.4745 10.96 9.93453 10.528C9.51197 10.19 9.0941 9.85194 8.67154 9.51859C8.48374 9.36834 8.39453 9.18523 8.39453 8.94109C8.40392 8.157 8.39923 7.37761 8.39923 6.59822Z" fill="#747B8C"/>
</g>
<defs>
<clipPath id="clip0_8_1395">
<rect width="18" height="17.998" fill="white"/>
</clipPath>
</defs>
</svg>
