<svg width="18" height="18" viewBox="0 0 18 18" fill="none" xmlns="http://www.w3.org/2000/svg">
<rect x="2.5" y="6.5" width="13" height="9" rx="0.5" fill="#D9D9D9" stroke="#2F57EF"/>
<path d="M12.9422 6.84685C13.0394 6.13975 13.0138 5.41478 12.867 4.72118C12.7202 4.02758 12.4557 3.38159 12.0914 2.8271C11.7272 2.2726 11.2718 1.82258 10.7561 1.5076C10.2404 1.19263 9.67647 1.02007 9.10269 1.00165C8.52891 0.983229 7.95868 1.11938 7.43072 1.40086C6.90277 1.68233 6.42946 2.10254 6.04294 2.63293C5.65642 3.16333 5.36574 3.79149 5.19065 4.47476C5.01556 5.15803 4.96016 5.88039 5.02821 6.59279L5.84993 6.47015C5.79596 5.90514 5.8399 5.33222 5.97876 4.79031C6.11763 4.24841 6.34817 3.7502 6.65472 3.32954C6.96127 2.90888 7.33666 2.57561 7.75539 2.35237C8.17411 2.12913 8.62637 2.02114 9.08145 2.03575C9.53652 2.05036 9.98375 2.18722 10.3928 2.43703C10.8018 2.68684 11.163 3.04376 11.4518 3.48354C11.7407 3.92331 11.9505 4.43565 12.0669 4.98575C12.1834 5.53586 12.2037 6.11084 12.1266 6.67164L12.9422 6.84685Z" fill="#2F57EF"/>
<circle cx="9" cy="11" r="1.5" stroke="#2F57EF"/>
</svg>
