<svg width="18" height="18" viewBox="0 0 18 18" fill="none" xmlns="http://www.w3.org/2000/svg">
<path fill-rule="evenodd" clip-rule="evenodd" d="M2.344 13.0831C6.55631 12.5314 9.45662 12.5789 13.6745 13.1024C13.9799 13.1421 14.259 13.2796 14.4603 13.4894C14.6615 13.6992 14.7712 13.9672 14.7692 14.2439C14.7692 14.5087 14.6677 14.7658 14.4843 14.9667C14.1647 15.3168 13.8372 15.6611 13.5022 15.9994H15.1274C15.2295 15.8902 15.3323 15.7788 15.4363 15.6657C15.8013 15.2644 16.0005 14.7623 16 14.2445C16 13.1273 15.0905 12.1645 13.8431 12.0101C9.52554 11.4744 6.50769 11.4231 2.16615 11.9919C0.905846 12.1568 0 13.1344 0 14.2594C0 14.7587 0.181538 15.2524 0.525538 15.6524C0.627077 15.7705 0.727384 15.8863 0.827077 16H2.41292C2.10118 15.6654 1.79712 15.3251 1.50092 14.9793C1.3249 14.7724 1.22994 14.5191 1.23077 14.2588C1.23077 13.6646 1.70708 13.1664 2.344 13.0831ZM8 7.72387C8.48488 7.72387 8.96501 7.63825 9.41298 7.4719C9.86096 7.30554 10.268 7.06171 10.6109 6.75433C10.9537 6.44694 11.2257 6.08203 11.4112 5.68041C11.5968 5.2788 11.6923 4.84835 11.6923 4.41364C11.6923 3.97894 11.5968 3.54849 11.4112 3.14687C11.2257 2.74525 10.9537 2.38034 10.6109 2.07295C10.268 1.76557 9.86096 1.52174 9.41298 1.35539C8.96501 1.18903 8.48488 1.10341 8 1.10341C7.02074 1.10341 6.08159 1.45217 5.38914 2.07295C4.6967 2.69374 4.30769 3.53571 4.30769 4.41364C4.30769 5.29157 4.6967 6.13354 5.38914 6.75433C6.08159 7.37512 7.02074 7.72387 8 7.72387ZM8 8.82728C9.30568 8.82728 10.5579 8.36227 11.4811 7.53456C12.4044 6.70684 12.9231 5.58421 12.9231 4.41364C12.9231 3.24307 12.4044 2.12044 11.4811 1.29273C10.5579 0.465007 9.30568 0 8 0C6.69432 0 5.44211 0.465007 4.51886 1.29273C3.5956 2.12044 3.07692 3.24307 3.07692 4.41364C3.07692 5.58421 3.5956 6.70684 4.51886 7.53456C5.44211 8.36227 6.69432 8.82728 8 8.82728Z" fill="#2F57EF"/>
</svg>
