<svg width="18" height="18" viewBox="0 0 18 18" fill="none" xmlns="http://www.w3.org/2000/svg">
<path d="M8.0024 11.3228C7.6229 13.3673 7.1609 15.3278 5.7899 16.3515C5.36765 13.2615 6.41165 10.9403 6.89615 8.47652C6.06965 7.04402 6.9959 4.16027 8.7389 4.87052C10.8839 5.74502 6.88115 10.197 9.5684 10.7535C12.3741 11.334 13.5201 5.74127 11.7801 3.92177C9.26615 1.29602 4.4624 3.86252 5.0534 7.62227C5.1974 8.54177 6.11915 8.82077 5.42165 10.0898C3.8129 9.72152 3.3329 8.41502 3.39515 6.67277C3.49415 3.82277 5.8829 1.82627 8.2784 1.55027C11.3084 1.20077 14.1516 2.69552 14.5439 5.63027C14.9864 8.94227 13.1766 12.5303 9.9374 12.2715C9.05915 12.2018 8.69015 11.754 8.0024 11.3228Z" fill="#2F2F2F"/>
</svg>
