<svg width="18" height="18" viewBox="0 0 18 18" fill="none" xmlns="http://www.w3.org/2000/svg">
<path d="M8.47059 15.8824C6.50487 15.8824 4.61965 15.1015 3.22968 13.7115C1.8397 12.3215 1.05882 10.4363 1.05882 8.47059C1.05882 6.50487 1.8397 4.61965 3.22968 3.22968C4.61965 1.8397 6.50487 1.05882 8.47059 1.05882C10.4363 1.05882 12.3215 1.8397 13.7115 3.22968C15.1015 4.61965 15.8824 6.50487 15.8824 8.47059C15.8824 10.4363 15.1015 12.3215 13.7115 13.7115C12.3215 15.1015 10.4363 15.8824 8.47059 15.8824ZM8.47059 16.9412C10.7171 16.9412 12.8717 16.0487 14.4602 14.4602C16.0487 12.8717 16.9412 10.7171 16.9412 8.47059C16.9412 6.22405 16.0487 4.06952 14.4602 2.48098C12.8717 0.892435 10.7171 0 8.47059 0C6.22405 0 4.06952 0.892435 2.48098 2.48098C0.892435 4.06952 0 6.22405 0 8.47059C0 10.7171 0.892435 12.8717 2.48098 14.4602C4.06952 16.0487 6.22405 16.9412 8.47059 16.9412Z" fill="#2F2F2F"/>
<path d="M10.8964 8.03973L7.19056 5.39267C7.11137 5.33597 7.01806 5.30221 6.92092 5.29511C6.82378 5.28801 6.72656 5.30785 6.63997 5.35244M10.8964 8.03973L6.63997 5.35244M10.8964 8.03973C10.9651 8.08871 11.021 8.15336 11.0596 8.22832C11.0982 8.30327 11.1183 8.38636 11.1183 8.47067C11.1183 8.55498 11.0982 8.63807 11.0596 8.71303C11.021 8.78799 10.9651 8.85264 10.8964 8.90162M10.8964 8.03973V8.90162M6.63997 5.35244L6.86887 5.79696C6.87368 5.79449 6.87908 5.79339 6.88448 5.79378C6.88988 5.79417 6.89506 5.79605 6.89946 5.7992L6.89994 5.79954L10.6058 8.4466L10.606 8.44673C10.6098 8.44945 10.6129 8.45304 10.6151 8.45721C10.6172 8.46137 10.6183 8.46599 10.6183 8.47067C10.6183 8.47536 10.6172 8.47997 10.6151 8.48414C10.6129 8.4883 10.6098 8.4919 10.606 8.49462L10.6058 8.49475L6.89994 11.1418L6.89956 11.1421C6.89516 11.1452 6.88997 11.1471 6.88458 11.1475C6.87919 11.1479 6.87379 11.1468 6.86898 11.1443C6.86417 11.1418 6.86014 11.1381 6.85732 11.1335C6.85451 11.1289 6.85302 11.1235 6.85303 11.1181V11.1177L6.85303 5.82362L6.85303 5.82309C6.85302 5.81768 6.85451 5.81238 6.85732 5.80776C6.86013 5.80314 6.86416 5.79939 6.86897 5.79691L6.63997 5.35244ZM10.8964 8.90162L7.19056 11.5487C7.11139 11.6053 7.01814 11.6391 6.92105 11.6462C6.82395 11.6533 6.72678 11.6335 6.64022 11.5889C6.55366 11.5444 6.48105 11.4768 6.43038 11.3937C6.37971 11.3106 6.35295 11.2151 6.35303 11.1177M10.8964 8.90162L6.35303 11.1177M6.35303 11.1177V5.82362V11.1177Z" stroke="#2F2F2F"/>
</svg>
