<svg width="18" height="18" viewBox="0 0 18 18" fill="none" xmlns="http://www.w3.org/2000/svg">
<g clip-path="url(#clip0_8_1404)">
<path d="M9.9202 1C12.2985 1 14.6834 1 17.0617 1C17.7524 1 18 1.24761 18 1.9383C18 4.95519 18 7.96557 18 10.9825C18 12.3443 17.1138 13.4585 15.7846 13.7648C15.5435 13.8234 15.2828 13.8365 15.0352 13.8365C12.1812 13.843 9.32725 13.843 6.47977 13.8365C5.94546 13.8365 5.48282 13.9863 5.05277 14.2991C3.79519 15.2048 2.53109 16.104 1.26699 17.0032C1.03242 17.1726 0.784812 17.2769 0.491594 17.1661C0.198375 17.0553 0.0354758 16.8403 0.00289599 16.5276C-0.00361998 16.4819 0.00289599 16.4298 0.00289599 16.3842C0.00289599 12.214 0.00289599 8.04376 0.00289599 3.88006C0.00941195 2.43351 0.960743 1.29322 2.36819 1.0391C2.58974 1 2.81779 1 3.04585 1C5.33947 1 7.62658 1 9.9202 1ZM16.5404 2.46609C16.4101 2.46609 16.3058 2.46609 16.2016 2.46609C13.0023 2.46609 9.7964 2.46609 6.59706 2.46609C5.35902 2.46609 4.1275 2.45958 2.88947 2.46609C2.04239 2.47261 1.46899 3.0395 1.46899 3.87354C1.46899 7.529 1.46899 11.191 1.46899 14.8464C1.46899 14.9051 1.48202 14.9637 1.48854 15.0419C2.4138 14.3838 3.31952 13.7517 4.21221 13.1002C4.89639 12.6049 5.64572 12.3704 6.48628 12.3769C9.33376 12.3899 12.1747 12.3834 15.0222 12.3834C15.98 12.3834 16.5404 11.8295 16.5404 10.8717C16.5404 8.16756 16.5404 5.45692 16.5404 2.7528C16.5404 2.66157 16.5404 2.57035 16.5404 2.46609Z" fill="#747B8C"/>
</g>
<defs>
<clipPath id="clip0_8_1404">
<rect width="18" height="18" fill="white"/>
</clipPath>
</defs>
</svg>
