<svg width="18" height="18" viewBox="0 0 18 18" fill="none" xmlns="http://www.w3.org/2000/svg">
<g clip-path="url(#clip0_33_46)">
<path d="M10.3078 2.19769C10.3078 1.10363 9.50606 0 7.7148 0C6.13749 0 5.07703 0.883125 5.07703 2.19769C5.07703 2.96494 5.36091 3.31481 5.54863 3.54656C5.64789 3.66862 5.688 3.72375 5.688 3.77887C5.688 3.87 5.688 3.92513 5.40103 3.9375H2.26491C1.05891 3.9375 0.000514286 4.98881 0.000514286 6.1875V8.28675C0.0200571 8.81775 0.294171 9.14794 0.7164 9.14794C0.956571 9.14794 1.13451 8.99775 1.30731 8.85206C1.53874 8.658 1.80051 8.4375 2.3148 8.4375C3.18703 8.4375 4.1148 9.22612 4.1148 10.6875C4.1148 12.1663 3.17469 13.1974 2.33074 13.1974C1.8216 13.1974 1.5552 12.9561 1.31966 12.7434C1.14326 12.5837 0.9612 12.4183 0.715886 12.4183C0.294171 12.4183 0.0195429 12.7485 0 13.2908V15.5981C0.000514286 16.8553 1.08 18 2.26491 18H5.41697C5.89423 17.9786 6.20229 17.6709 6.20229 17.2148C6.20229 16.9408 6.05983 16.7647 5.93383 16.6095C5.76514 16.4019 5.59131 16.1876 5.59131 15.6341C5.59131 14.6408 6.41623 13.9989 7.69217 13.9989C8.96863 13.9989 9.79354 14.6408 9.79354 15.6341C9.79354 16.1876 9.6192 16.4019 9.45103 16.6095C9.32503 16.7647 9.18206 16.9408 9.18206 17.2148C9.18206 17.6771 9.48291 17.9775 9.97817 17.9994L12.005 18C13.1117 18 13.8852 17.0567 13.8852 15.7061V13.0905C13.8986 13.0219 14.057 12.7598 14.2987 12.7598C14.3481 12.7598 14.3979 12.8042 14.509 12.9122C14.7199 13.1186 15.0393 13.4308 15.7397 13.4308C16.8629 13.4303 18.0005 12.4886 18.0005 10.6875C18.0005 8.74463 16.9673 7.875 15.9434 7.875C15.2522 7.875 14.8531 8.22038 14.5887 8.44875C14.4715 8.55 14.3614 8.64562 14.2987 8.64562C14.0565 8.64562 13.8981 8.38237 13.8862 8.32444L13.8852 8.31094V6.2955C13.8852 4.92919 13.0942 3.9375 12.005 3.9375H9.98846L9.96789 3.93581C9.69634 3.92456 9.69634 3.87 9.69634 3.77887C9.69634 3.72375 9.73646 3.66919 9.83571 3.54656C10.0234 3.31537 10.3078 2.96494 10.3078 2.19769ZM9.45103 3.17363C9.32503 3.32888 9.18206 3.5055 9.18206 3.77944C9.18206 4.08881 9.31114 4.46119 9.93857 4.49775C9.95051 4.49936 9.96254 4.50011 9.97457 4.5H12.005C12.9019 4.5 13.3719 5.40338 13.3719 6.2955V8.33906C13.3719 8.35931 13.3683 8.379 13.3719 8.39813C13.4193 8.74181 13.805 9.20756 14.2987 9.20756C14.5404 9.20756 14.7183 9.05344 14.9081 8.88975C15.1529 8.67769 15.4311 8.4375 15.9434 8.4375C16.8804 8.4375 17.4862 9.32062 17.4862 10.6875C17.4862 12.186 16.5806 12.8677 15.7397 12.8677C15.2362 12.8677 15.0408 12.6771 14.8515 12.4926C14.7096 12.3542 14.5486 12.1973 14.2987 12.1973C13.805 12.1973 13.4187 12.6636 13.3719 13.0073C13.3683 13.0264 13.3719 13.0461 13.3719 13.0663V15.7067C13.3719 16.5679 12.9487 17.4375 12.005 17.4375H9.98846C9.69634 17.4246 9.69634 17.2772 9.69634 17.2148C9.69634 17.1602 9.73646 17.1051 9.83571 16.9824C10.0234 16.7507 10.3078 16.4008 10.3078 15.6336C10.3078 14.5395 9.49937 13.4359 7.69217 13.4359C6.12823 13.4359 5.07703 14.319 5.07703 15.6336C5.07703 16.4008 5.36091 16.7507 5.54914 16.9824C5.64789 17.1045 5.68851 17.1596 5.68851 17.2148C5.68851 17.2778 5.68851 17.4251 5.40669 17.4375H2.26491C1.38189 17.4375 0.5148 16.5262 0.5148 15.5981V13.302C0.526114 12.9808 0.659314 12.9808 0.7164 12.9808C0.776057 12.9808 0.880971 13.0759 0.992571 13.1766C1.24869 13.4089 1.63697 13.7599 2.33126 13.7599C3.44057 13.7599 4.62909 12.5252 4.62909 10.6875C4.62909 8.8605 3.43697 7.875 2.3148 7.875C1.62566 7.875 1.2456 8.1945 0.994114 8.40656C0.879943 8.50275 0.7812 8.58544 0.7164 8.58544C0.659829 8.58544 0.526629 8.58544 0.5148 8.2755V6.1875C0.5148 5.193 1.43743 4.5 2.26491 4.5H5.40977L5.43394 4.49888C6.06909 4.473 6.20229 4.09275 6.20229 3.77887C6.20229 3.50494 6.05983 3.32888 5.93383 3.17363C5.76514 2.96606 5.59131 2.75175 5.59131 2.19769C5.59131 1.2195 6.44451 0.5625 7.7148 0.5625C8.97737 0.5625 9.79354 1.20431 9.79354 2.19769C9.79354 2.75119 9.6192 2.96606 9.45103 3.17363Z" fill="black"/>
</g>
<defs>
<clipPath id="clip0_33_46">
<rect width="18" height="18" fill="white"/>
</clipPath>
</defs>
</svg>
