<svg width="18" height="18" viewBox="0 0 18 18" fill="none" xmlns="http://www.w3.org/2000/svg">
<path d="M15 7.66346V15.1538C15 15.6435 14.8104 16.1131 14.4728 16.4593C14.1352 16.8055 13.6774 17 13.2 17H4.8C4.32261 17 3.86477 16.8055 3.52721 16.4593C3.18964 16.1131 3 15.6435 3 15.1538V2.84615C3 2.35652 3.18964 1.88695 3.52721 1.54073C3.86477 1.19451 4.32261 1 4.8 1H8.50313C8.82127 1.00005 9.12638 1.12968 9.35138 1.36038L14.6486 6.79346C14.8736 7.02422 15 7.33715 15 7.66346Z" stroke="black" stroke-linejoin="round"/>
<path d="M9 1.30762V5.923C9 6.24942 9.12643 6.56247 9.35147 6.79329C9.57652 7.0241 9.88174 7.15377 10.2 7.15377H14.7M6 10.2307H12M6 13.3076H12" stroke="black" stroke-linecap="round" stroke-linejoin="round"/>
<path d="M5.40015 7.15391C5.40015 6.92733 5.58382 6.74365 5.8104 6.74365H8.18989C8.41647 6.74365 8.60015 6.92733 8.60015 7.15391V7.15391C8.60015 7.38049 8.41647 7.56417 8.18989 7.56417H5.8104C5.58382 7.56417 5.40015 7.38049 5.40015 7.15391V7.15391Z" fill="black"/>
</svg>
