<svg width="18" height="18" viewBox="0 0 18 18" fill="none" xmlns="http://www.w3.org/2000/svg">
<g clip-path="url(#clip0_8_1419)">
<path d="M18 10.0134C17.7598 10.7167 17.2517 11.0314 16.5311 11.0499C16.217 11.0591 16.0877 11.2072 15.9491 11.4941C15.6166 12.1512 15.5149 12.6879 16.0877 13.2987C16.4572 13.6874 16.3279 14.3445 15.9399 14.7609C15.5611 15.1681 15.1731 15.5568 14.7667 15.9362C14.314 16.3527 13.6396 16.4175 13.1869 16.0103C12.7158 15.5846 12.3278 15.6031 11.755 15.8344C11.2562 16.038 11.0622 16.2972 11.0067 16.8154C10.9328 17.6021 10.434 17.9907 9.65796 18C9.19605 18 8.73415 18 8.27224 18C7.57938 17.9907 7.05281 17.5928 6.98814 16.8987C6.94195 16.3157 6.71099 16.0288 6.14747 15.8067C5.63013 15.6031 5.29756 15.6123 4.8726 15.9733C4.31832 16.4545 3.65317 16.3805 3.1266 15.8715C2.77555 15.5383 2.43374 15.1959 2.10116 14.8442C1.62078 14.3445 1.54687 13.6689 2.00878 13.1506C2.40602 12.7064 2.39678 12.3455 2.17507 11.8087C1.96259 11.2997 1.73164 11.0591 1.16811 11.0129C0.382869 10.9388 0.00410584 10.4391 0.00410584 9.65244C0.00410584 9.18972 -0.0051323 8.72699 0.00410584 8.26427C0.013344 7.57018 0.42906 7.04267 1.11268 6.9964C1.68545 6.95013 1.95335 6.71877 2.18431 6.17275C2.40602 5.64524 2.38754 5.29357 2.01802 4.86787C1.55611 4.32185 1.62078 3.66478 2.11964 3.14653C2.45221 2.79486 2.79402 2.45244 3.14507 2.11928C3.64393 1.62879 4.30908 1.5455 4.83565 1.99897C5.28832 2.38766 5.64861 2.42468 6.2029 2.17481C6.68328 1.9527 6.96966 1.7491 6.9789 1.19383C6.99738 0.564524 7.41309 0.212853 7.96738 0C8.66024 0 9.3531 0 10.046 0C10.628 0.222108 11.0344 0.610797 11.0344 1.26787C11.0437 1.77686 11.3116 1.9527 11.7365 2.14704C12.3001 2.41542 12.7065 2.41542 13.1869 1.98046C13.6396 1.56401 14.314 1.63805 14.7667 2.0545C15.1731 2.43393 15.5611 2.82262 15.9399 3.22982C16.3187 3.63702 16.4572 4.29409 16.0877 4.69203C15.5149 5.30283 15.5704 5.8581 15.9584 6.47815C15.9676 6.4874 15.9676 6.49666 15.9676 6.50591C16.0046 6.82057 16.1893 6.92236 16.4849 6.92236C17.2055 6.94087 17.7413 7.24627 17.9908 7.95887C18 8.63445 18 9.32853 18 10.0134ZM16.4757 8.42159C16.2632 8.39383 16.0785 8.36607 15.8845 8.3383C15.2655 8.26427 14.859 7.94036 14.665 7.32956C14.5357 6.91311 14.3602 6.51517 14.1662 6.11722C13.9075 5.58972 13.9167 5.09923 14.277 4.62725C14.4156 4.44216 14.5542 4.24782 14.6373 4.13676C14.3602 3.82211 14.1292 3.55373 13.8983 3.28535C13.7412 3.40566 13.6119 3.48895 13.4918 3.6C12.9467 4.07198 12.374 4.109 11.7365 3.75733C11.404 3.57224 11.0437 3.43342 10.6834 3.32237C10.0367 3.13728 9.70415 2.71157 9.63948 2.0545C9.62101 1.86941 9.58405 1.67506 9.55634 1.48997C9.17758 1.48997 8.82653 1.48997 8.457 1.48997C8.42005 1.71208 8.39234 1.92494 8.35538 2.13779C8.27224 2.75784 7.93043 3.11877 7.33919 3.31311C6.91423 3.45193 6.50776 3.64627 6.10128 3.83136C5.61166 4.06273 5.14051 4.04422 4.69708 3.72031C4.50308 3.58149 4.30908 3.43342 4.13355 3.2946C3.86565 3.57224 3.61622 3.83136 3.35755 4.09974C3.49612 4.28483 3.65317 4.48843 3.80098 4.69203C4.07812 5.08997 4.11508 5.51568 3.92108 5.96915C3.7086 6.46889 3.49612 6.96864 3.30212 7.46838C3.11736 7.93111 2.8125 8.20874 2.34135 8.30129C2.07345 8.35681 1.80554 8.39383 1.54687 8.4401C1.54687 8.82879 1.54687 9.18046 1.54687 9.54139C1.75011 9.56915 1.93488 9.59691 2.11964 9.61542C2.77555 9.68946 3.18203 10.0319 3.36679 10.6797C3.47765 11.0591 3.64393 11.4386 3.82869 11.7902C4.13355 12.364 4.0966 12.8915 3.68088 13.4005C3.55155 13.5578 3.44069 13.7244 3.35755 13.8355C3.62546 14.1409 3.86565 14.4 4.10584 14.6684C4.2906 14.5296 4.45689 14.4093 4.62318 14.2797C5.1128 13.891 5.62089 13.854 6.16594 14.1501C6.3969 14.2797 6.63709 14.4185 6.88652 14.474C7.84729 14.6961 8.42005 15.2144 8.42005 16.2602C8.42005 16.3342 8.54938 16.4545 8.62329 16.4638C8.92815 16.4823 9.24224 16.473 9.55634 16.473C9.59329 16.2324 9.62101 16.0473 9.63948 15.853C9.72263 15.2329 10.046 14.835 10.6557 14.6406C11.0714 14.5111 11.4779 14.3352 11.8659 14.1316C12.4017 13.8632 12.8821 13.9003 13.3532 14.2612C13.538 14.4 13.7135 14.5296 13.8613 14.6406C14.1477 14.363 14.3971 14.1131 14.665 13.854C14.5542 13.7059 14.4341 13.5393 14.3047 13.3728C13.9167 12.8823 13.889 12.3825 14.1662 11.8272C14.3694 11.4201 14.5265 10.9851 14.6835 10.5501C14.8683 10.0504 15.1916 9.73573 15.7182 9.65244C15.9676 9.61542 16.217 9.56915 16.4665 9.53213C16.4757 9.16195 16.4757 8.81954 16.4757 8.42159Z" fill="#747B8C"/>
<path d="M8.993 5.77482C10.776 5.76557 12.2079 7.19076 12.2079 8.97688C12.2079 10.763 10.776 12.1974 9.00224 12.1882C7.23775 12.1789 5.81508 10.7723 5.80584 8.99539C5.78736 7.22778 7.21928 5.78408 8.993 5.77482ZM8.993 7.20001C8.01376 7.20927 7.21004 8.02366 7.21928 8.99539C7.22852 9.96711 8.04147 10.7815 9.01148 10.7722C9.98148 10.763 10.7944 9.9486 10.7852 8.97688C10.7852 7.9959 9.97224 7.19076 8.993 7.20001Z" fill="#747B8C"/>
</g>
<defs>
<clipPath id="clip0_8_1419">
<rect width="18" height="18" fill="white"/>
</clipPath>
</defs>
</svg>
