<svg width="18" height="18" viewBox="0 0 18 18" fill="none" xmlns="http://www.w3.org/2000/svg">
<mask id="path-1-inside-1_410_85" fill="white">
<path d="M14.2924 8.96383H6.16542C5.90603 8.96383 5.69637 8.75383 5.69637 8.49508C5.69637 8.23633 5.90603 8.02633 6.16542 8.02633H14.2631L12.5663 6.33062C12.3832 6.14758 12.3832 5.85086 12.5663 5.66781C12.7495 5.48477 13.0464 5.48477 13.2296 5.66781L16 8.50961L13.2296 11.3514C13.1379 11.443 13.018 11.4887 12.8979 11.4887C12.7779 11.4887 12.658 11.443 12.5663 11.3514C12.3832 11.1684 12.3832 10.8716 12.5663 10.6886L14.2924 8.96383ZM1.93833 1H9.91221C10.4305 1 10.8503 1.41977 10.8503 1.9375V6.15625H9.90611V2.50914C9.90611 2.19602 9.65189 1.94195 9.33856 1.94195H2.52677C2.21323 1.94195 1.95922 2.19602 1.95922 2.50914L1.94446 14.4958C1.94446 14.8089 2.19845 15.063 2.51201 15.063H9.33831C9.65164 15.063 9.90586 14.8089 9.90586 14.4958V10.8283L10.8501 10.8295V15.0625C10.8501 15.5802 10.4303 16 9.91196 16H1.93833C1.42003 16 1 15.5802 1 15.0625V1.9375C1.00022 1.41977 1.42027 1 1.93833 1Z"/>
</mask>
<path d="M14.2924 8.96383H6.16542C5.90603 8.96383 5.69637 8.75383 5.69637 8.49508C5.69637 8.23633 5.90603 8.02633 6.16542 8.02633H14.2631L12.5663 6.33062C12.3832 6.14758 12.3832 5.85086 12.5663 5.66781C12.7495 5.48477 13.0464 5.48477 13.2296 5.66781L16 8.50961L13.2296 11.3514C13.1379 11.443 13.018 11.4887 12.8979 11.4887C12.7779 11.4887 12.658 11.443 12.5663 11.3514C12.3832 11.1684 12.3832 10.8716 12.5663 10.6886L14.2924 8.96383ZM1.93833 1H9.91221C10.4305 1 10.8503 1.41977 10.8503 1.9375V6.15625H9.90611V2.50914C9.90611 2.19602 9.65189 1.94195 9.33856 1.94195H2.52677C2.21323 1.94195 1.95922 2.19602 1.95922 2.50914L1.94446 14.4958C1.94446 14.8089 2.19845 15.063 2.51201 15.063H9.33831C9.65164 15.063 9.90586 14.8089 9.90586 14.4958V10.8283L10.8501 10.8295V15.0625C10.8501 15.5802 10.4303 16 9.91196 16H1.93833C1.42003 16 1 15.5802 1 15.0625V1.9375C1.00022 1.41977 1.42027 1 1.93833 1Z" fill="#2F57EF"/>
<path d="M14.2924 8.96383V7.66383H17.4326L15.2113 9.88342L14.2924 8.96383ZM14.2631 8.02633L15.1821 7.10679L17.403 9.32633H14.2631V8.02633ZM12.5663 6.33062L13.4853 5.41109L13.4853 5.41109L12.5663 6.33062ZM13.2296 5.66781L14.1485 4.74828L14.1545 4.75427L14.1604 4.76033L13.2296 5.66781ZM16 8.50961L16.9309 7.60213L17.8155 8.50961L16.9309 9.41709L16 8.50961ZM13.2296 11.3514L14.1604 12.2589L14.1545 12.265L14.1485 12.2709L13.2296 11.3514ZM12.5663 10.6886L11.6474 9.76906L11.6474 9.769L12.5663 10.6886ZM10.8503 6.15625H12.1503V7.45625H10.8503V6.15625ZM9.90611 6.15625V7.45625H8.60611V6.15625H9.90611ZM1.95922 2.50914L3.25922 2.50914L3.25922 2.51074L1.95922 2.50914ZM1.94446 14.4958L0.644462 14.4958L0.644464 14.4942L1.94446 14.4958ZM9.90586 10.8283H8.60586V9.52667L9.90748 9.52828L9.90586 10.8283ZM10.8501 10.8295L10.8517 9.52945L12.1501 9.53107V10.8295H10.8501ZM1 1.9375L-0.3 1.9375L-0.3 1.93695L1 1.9375ZM14.2924 10.2638H6.16542V7.66383H14.2924V10.2638ZM6.16542 10.2638C5.188 10.2638 4.39637 9.47174 4.39637 8.49508H6.99637C6.99637 8.03592 6.62406 7.66383 6.16542 7.66383V10.2638ZM4.39637 8.49508C4.39637 7.51842 5.188 6.72633 6.16542 6.72633V9.32633C6.62406 9.32633 6.99637 8.95424 6.99637 8.49508H4.39637ZM6.16542 6.72633H14.2631V9.32633H6.16542V6.72633ZM13.3442 8.94586L11.6474 7.25016L13.4853 5.41109L15.1821 7.10679L13.3442 8.94586ZM11.6474 7.25016C10.9561 6.55936 10.9561 5.43907 11.6474 4.74828L13.4853 6.58735C13.8102 6.26264 13.8102 5.73579 13.4853 5.41109L11.6474 7.25016ZM11.6474 4.74828C12.3382 4.05794 13.4577 4.05794 14.1485 4.74828L12.3106 6.58735C12.6351 6.91159 13.1608 6.91159 13.4853 6.58735L11.6474 4.74828ZM14.1604 4.76033L16.9309 7.60213L15.0691 9.41709L12.2987 6.57529L14.1604 4.76033ZM16.9309 9.41709L14.1604 12.2589L12.2987 10.4439L15.0691 7.60213L16.9309 9.41709ZM14.1485 12.2709C13.8034 12.6158 13.3488 12.7887 12.8979 12.7887V10.1887C12.6873 10.1887 12.4723 10.2702 12.3106 10.4319L14.1485 12.2709ZM12.8979 12.7887C12.4471 12.7887 11.9925 12.6158 11.6474 12.2709L13.4853 10.4319C13.3235 10.2702 13.1086 10.1887 12.8979 10.1887V12.7887ZM11.6474 12.2709C10.9561 11.5801 10.9561 10.4599 11.6474 9.76906L13.4853 11.6081C13.8102 11.2834 13.8102 10.7566 13.4853 10.4319L11.6474 12.2709ZM11.6474 9.769L13.3735 8.04423L15.2113 9.88342L13.4852 11.6082L11.6474 9.769ZM1.93833 -0.3H9.91221V2.3H1.93833V-0.3ZM9.91221 -0.3C11.1479 -0.3 12.1503 0.701222 12.1503 1.9375H9.55031C9.55031 2.13831 9.71311 2.3 9.91221 2.3V-0.3ZM12.1503 1.9375V6.15625H9.55031V1.9375H12.1503ZM10.8503 7.45625H9.90611V4.85625H10.8503V7.45625ZM8.60611 6.15625V2.50914H11.2061V6.15625H8.60611ZM8.60611 2.50914C8.60611 2.91477 8.9347 3.24195 9.33856 3.24195V0.641953C10.3691 0.641953 11.2061 1.47726 11.2061 2.50914H8.60611ZM9.33856 3.24195H2.52677V0.641953H9.33856V3.24195ZM2.52677 3.24195C2.93074 3.24195 3.25922 2.91445 3.25922 2.50914H0.659223C0.659223 1.47759 1.49572 0.641953 2.52677 0.641953V3.24195ZM3.25922 2.51074L3.24446 14.4974L0.644464 14.4942L0.659224 2.50754L3.25922 2.51074ZM3.24446 14.4958C3.24446 14.0905 2.91599 13.763 2.51201 13.763V16.363C1.48092 16.363 0.644463 15.5273 0.644463 14.4958H3.24446ZM2.51201 13.763H9.33831V16.363H2.51201V13.763ZM9.33831 13.763C8.93445 13.763 8.60586 14.0901 8.60586 14.4958H11.2059C11.2059 15.5277 10.3688 16.363 9.33831 16.363V13.763ZM8.60586 14.4958V10.8283H11.2059V14.4958H8.60586ZM9.90748 9.52828L10.8517 9.52945L10.8484 12.1295L9.90425 12.1283L9.90748 9.52828ZM12.1501 10.8295V15.0625H9.55006V10.8295H12.1501ZM12.1501 15.0625C12.1501 16.2988 11.1477 17.3 9.91196 17.3V14.7C9.71286 14.7 9.55006 14.8617 9.55006 15.0625H12.1501ZM9.91196 17.3H1.93833V14.7H9.91196V17.3ZM1.93833 17.3C0.70306 17.3 -0.3 16.2992 -0.3 15.0625H2.3C2.3 14.8613 2.13701 14.7 1.93833 14.7V17.3ZM-0.3 15.0625V1.9375H2.3V15.0625H-0.3ZM-0.3 1.93695C-0.299475 0.700971 0.703003 -0.3 1.93833 -0.3V2.3C2.13753 2.3 2.29991 2.13856 2.3 1.93805L-0.3 1.93695Z" fill="#2F57EF" mask="url(#path-1-inside-1_410_85)"/>
</svg>
