<svg width="18" height="18" viewBox="0 0 18 18" fill="none" xmlns="http://www.w3.org/2000/svg">
<g clip-path="url(#clip0_40_6)">
<path d="M4.92415 14.1376L4.65869 15.2879L5.6696 14.6781L8.55965 12.9349L11.4506 14.7016L12.464 15.3209L12.1987 14.1633L11.4409 10.8565L13.9884 8.65318L14.8806 7.88158L13.7057 7.77697L10.3538 7.47852L9.02127 4.35386L8.56305 3.2794L8.10195 4.35263L6.76975 7.45344L3.417 7.75197L2.25045 7.85584L3.13234 8.6265L5.68181 10.8544L4.92415 14.1376ZM8.81936 14.2717L8.56135 14.1163L8.30334 14.2717L4.15334 16.7717L4.15327 16.7716L4.14291 16.7782C4.04367 16.8413 3.95978 16.8586 3.87787 16.8517C3.76882 16.8426 3.68736 16.809 3.61832 16.7553C3.53101 16.6874 3.4633 16.6038 3.41285 16.4982C3.38495 16.4394 3.37011 16.3611 3.39843 16.2379C3.39847 16.2378 3.39851 16.2376 3.39855 16.2374L4.49833 11.5134L4.56682 11.2191L4.33823 11.0216L0.667513 7.85035C0.569909 7.76154 0.529116 7.68093 0.513151 7.60677L0.513155 7.60677L0.512722 7.6048C0.490952 7.50562 0.49711 7.41475 0.531246 7.32087C0.572079 7.20858 0.626971 7.13196 0.690602 7.07629C0.729637 7.04213 0.809522 6.99637 0.969731 6.9718L5.805 6.54809L6.10513 6.52179L6.22212 6.24414L8.09712 1.79415L8.09789 1.79231C8.14201 1.68642 8.20008 1.62538 8.27206 1.58433L8.27278 1.58392C8.37941 1.52287 8.47353 1.5 8.56135 1.5C8.64913 1.5 8.74373 1.52285 8.85126 1.58411C8.9225 1.62498 8.98052 1.68602 9.02481 1.79231L9.02558 1.79414L10.9006 6.24414L11.0176 6.52179L11.3177 6.54809L16.153 6.9718C16.3132 6.99637 16.3931 7.04213 16.4321 7.07629C16.4957 7.13196 16.5506 7.20858 16.5915 7.32087C16.6257 7.41517 16.6321 7.50649 16.6107 7.60585C16.5942 7.68061 16.5528 7.76154 16.4552 7.85033L12.7845 11.0216L12.5559 11.2191L12.6244 11.5134L13.7242 16.2374C13.7242 16.2375 13.7242 16.2376 13.7242 16.2378C13.7526 16.3609 13.7378 16.4393 13.7099 16.4981C13.6594 16.6037 13.5917 16.6874 13.5044 16.7553C13.4353 16.809 13.3539 16.8426 13.2448 16.8517C13.1629 16.8586 13.079 16.8413 12.9798 16.7782L12.9799 16.778L12.9694 16.7717L8.81936 14.2717Z" fill="#FFCE31" stroke="#FFCE31"/>
</g>
<defs>
<clipPath id="clip0_40_6">
<rect width="17" height="17" fill="white" transform="translate(0 1)"/>
</clipPath>
</defs>
</svg>
