<svg width="18" height="18" viewBox="0 0 18 18" fill="none" xmlns="http://www.w3.org/2000/svg">
<g clip-path="url(#clip0_34_2)">
<path d="M13.7857 14.7143H12.7143V15.7857C12.7143 15.8425 12.6917 15.8971 12.6515 15.9372C12.6113 15.9774 12.5568 16 12.5 16C12.4432 16 12.3887 15.9774 12.3485 15.9372C12.3083 15.8971 12.2857 15.8425 12.2857 15.7857V14.7143H11.2143C11.1575 14.7143 11.1029 14.6917 11.0628 14.6515C11.0226 14.6113 11 14.5568 11 14.5C11 14.4432 11.0226 14.3887 11.0628 14.3485C11.1029 14.3083 11.1575 14.2857 11.2143 14.2857H12.2857V13.2143C12.2857 13.1575 12.3083 13.1029 12.3485 13.0628C12.3887 13.0226 12.4432 13 12.5 13C12.5568 13 12.6113 13.0226 12.6515 13.0628C12.6917 13.1029 12.7143 13.1575 12.7143 13.2143V14.2857H13.7857C13.8425 14.2857 13.8971 14.3083 13.9372 14.3485C13.9774 14.3887 14 14.4432 14 14.5C14 14.5568 13.9774 14.6113 13.9372 14.6515C13.8971 14.6917 13.8425 14.7143 13.7857 14.7143Z" fill="#2F2F2F"/>
<path d="M12.0652 5.27778C12.0652 7.36605 10.3796 9.05556 8.30434 9.05556C6.22913 9.05556 4.54346 7.36605 4.54346 5.27778C4.54346 3.1895 6.22913 1.5 8.30434 1.5C10.3796 1.5 12.0652 3.1895 12.0652 5.27778Z" stroke="#2F2F2F"/>
<circle cx="12.5" cy="14.5" r="3" stroke="#2F2F2F"/>
<line x1="1" y1="15.7776" x2="9.52177" y2="15.7776" stroke="#2F2F2F"/>
<path d="M14.2501 11.5058C13.257 10.3989 11.9214 9.60568 10.4264 9.23484C8.93138 8.86401 7.3501 8.9337 5.89919 9.43436C4.44828 9.93503 3.19873 10.8422 2.32175 12.0315C1.44477 13.2208 0.983261 14.6342 1.00046 16.0778L1.9975 16.0675C1.98258 14.8157 2.38273 13.5903 3.14312 12.5591C3.90351 11.5279 4.98694 10.7413 6.24495 10.3072C7.50297 9.87313 8.87403 9.81271 10.1703 10.1342C11.4665 10.4558 12.6245 11.1435 13.4857 12.1033L14.2501 11.5058Z" fill="#2F2F2F"/>
</g>
<defs>
<clipPath id="clip0_34_2">
<rect width="18" height="18" fill="white"/>
</clipPath>
</defs>
</svg>
