<svg width="18" height="18" viewBox="0 0 18 18" fill="none" xmlns="http://www.w3.org/2000/svg">
<path d="M14.1675 5.25892C14.7735 4.88692 15.1748 4.37917 15.3713 3.73342C14.8178 4.03275 14.2239 4.25026 13.608 4.37917C13.0808 3.81217 12.4133 3.52417 11.613 3.52417C10.8308 3.52417 10.17 3.79867 9.63077 4.33267C9.37035 4.58625 9.16445 4.89033 9.02568 5.22628C8.88692 5.56223 8.81821 5.92298 8.82377 6.28642C8.82377 6.51817 8.85302 6.72517 8.91152 6.90067C6.60452 6.82192 4.69502 5.86492 3.19052 4.02292C2.93552 4.47367 2.80802 4.93267 2.80802 5.40742C2.80802 6.38317 3.21977 7.15642 4.04177 7.72417C3.57302 7.68442 3.15977 7.56592 2.80802 7.37167C2.80802 8.06842 3.01277 8.65042 3.42302 9.16267C3.82153 9.66182 4.38315 10.0046 5.00927 10.1309C4.77527 10.1909 4.52852 10.2194 4.27502 10.2194C4.04102 10.2194 3.87527 10.1999 3.77702 10.1572C3.94952 10.7249 4.27502 11.1854 4.74527 11.5379C5.21015 11.8909 5.77563 12.0861 6.35927 12.0952C5.36027 12.8789 4.21802 13.2667 2.92577 13.2667C2.60927 13.2667 2.38502 13.2622 2.24927 13.2382C3.52202 14.0647 4.93877 14.4749 6.50627 14.4749C8.11052 14.4749 9.52802 14.0684 10.7618 13.2554C11.9955 12.4469 12.906 11.4494 13.491 10.2749C14.0695 9.13845 14.3707 7.88116 14.37 6.60592V6.25492C14.9092 5.85736 15.376 5.37001 15.75 4.81417C15.245 5.03307 14.7127 5.18267 14.1675 5.25892Z" fill="#2F2F2F"/>
</svg>
